<?xml version="1.0" encoding="utf-8"?>
<!-- Generator: Adobe Illustrator 23.1.0, SVG Export Plug-In . SVG Version: 6.00 Build 0)  -->
<svg version="1.1" id="레이어_1" xmlns="http://www.w3.org/2000/svg" xmlns:xlink="http://www.w3.org/1999/xlink" x="0px"
	 y="0px" viewBox="0 0 325 170" style="enable-background:new 0 0 325 170;" xml:space="preserve">
<style type="text/css">
	.st0{fill:none;stroke:#FFFFFF;stroke-width:4;}
	.st1{fill:#FFFFFF;}
</style>
<g id="그룹_62" transform="translate(-849.911 -613.813)">
	<path id="패스_656" class="st0" d="M1160.17,627.03H933.67c-1.54,0-5.97,5.39-6.71,6.22l0,0l-27.74,28.79l-36,37.44
		c-1.07,1.02-1.1,2.71-0.09,3.77c0.03,0.03,0.06,0.06,0.09,0.09l36,37.45l27.74,28.85l0,0c0.74,0.83,5.17,5.17,6.71,5.17h226.51
		c2.35,0,4.75-2.03,4.75-3.61V631.18C1164.41,628.91,1162.49,627.23,1160.17,627.03z"/>
	<g id="delete-cross" transform="translate(901.192 627.433)">
		<path id="패스_657" class="st1" d="M109.41,109.16c0.86,0.86,2.26,0.86,3.12,0c0,0,0,0,0,0l32.79-32.79l32.79,32.79
			c0.86,0.86,2.26,0.86,3.12,0s0.86-2.26,0-3.12l-32.79-32.79l32.79-32.79c0.86-0.86,0.86-2.26,0-3.12c-0.86-0.86-2.26-0.86-3.12,0
			l0,0l-32.79,32.79l-32.79-32.79c-0.86-0.86-2.26-0.86-3.12,0c-0.86,0.86-0.86,2.26,0,3.12l32.79,32.79l-32.79,32.79
			C108.55,106.9,108.55,108.3,109.41,109.16C109.41,109.16,109.41,109.16,109.41,109.16z"/>
	</g>
</g>
</svg>
