<?xml version="1.0" encoding="utf-8"?>
<!-- Generator: Adobe Illustrator 23.1.0, SVG Export Plug-In . SVG Version: 6.00 Build 0)  -->
<svg version="1.1" id="레이어_1" xmlns="http://www.w3.org/2000/svg" xmlns:xlink="http://www.w3.org/1999/xlink" x="0px"
	 y="0px" viewBox="0 0 104 107" style="enable-background:new 0 0 104 107;" xml:space="preserve">
<style type="text/css">
	.st0{fill:#7D7D7D;}
	.st1{fill-rule:evenodd;clip-rule:evenodd;fill:#FFFFFF;}
</style>
<g>
	<path class="st0" d="M100.3,80.36c0,11.94-9.65,21.64-21.55,21.64H26.18c-11.9,0-21.55-9.7-21.55-21.64V27.62
		C4.62,15.69,14.28,6,26.18,6h52.58c11.9,0,21.55,9.69,21.55,21.62V80.36z"/>
	<path class="st1" d="M80.9,58.89c-8.38-10.54-6.97-22.26-13.62-22.26c-2.88,0-7.07,1.94-9.16,5.17c-2.33-9.97-6.79-16.7-11.88-16.7
		c-6.07,0-11.24,9.63-12.99,22.86c-1.23-1.13-4.15-1.78-5.59-1.78c-5.23,0-7.7,7.03-9.44,18.35c-1.75,11.33-9.69,18.36-4.5,18.36
		h25.78c-0.04-0.68-0.06-1.38-0.06-2.05c0-10.52,5.26-19.04,11.75-19.04s11.77,8.52,11.77,19.04c0,0.68-0.02,1.38-0.08,2.05h27.53
		C97.08,82.9,89.27,69.42,80.9,58.89"/>
</g>
</svg>
