<?xml version="1.0" encoding="utf-8"?>
<!-- Generator: Adobe Illustrator 23.1.0, SVG Export Plug-In . SVG Version: 6.00 Build 0)  -->
<svg version="1.1" id="레이어_1" xmlns="http://www.w3.org/2000/svg" xmlns:xlink="http://www.w3.org/1999/xlink" x="0px"
	 y="0px" viewBox="0 0 104 107" style="enable-background:new 0 0 104 107;" xml:space="preserve">
<style type="text/css">
	.st0{fill:#00B9EF;}
	.st1{fill:#FFFFFF;}
</style>
<g>
	<path class="st0" d="M100.31,80.22c0,12.01-9.72,21.78-21.7,21.78H25.68C13.72,102,4,92.23,4,80.22v-53.1
		C4,15.11,13.72,5.38,25.68,5.38h52.93c11.99,0,21.7,9.74,21.7,21.75V80.22z"/>
	<g>
		<path class="st1" d="M53.22,93.06c-15.87,0-28.76-12.95-28.76-28.85c0-14.87,23.65-45.33,26.35-48.76
			c0.59-0.73,1.47-1.17,2.42-1.17c0.92,0,1.79,0.44,2.38,1.17c2.7,3.43,26.35,33.89,26.35,48.76
			C81.95,80.12,69.04,93.06,53.22,93.06 M53.22,22.39C45.2,33.04,30.59,54.5,30.59,64.22c0,12.52,10.15,22.68,22.63,22.68
			s22.6-10.16,22.6-22.68C75.82,54.5,61.21,33.04,53.22,22.39"/>
		<path class="st1" d="M53.22,80.77c-1.7,0-3.08-1.37-3.08-3.07c0-1.68,1.39-3.07,3.08-3.07c5.71,0,10.38-4.65,10.38-10.41
			c0-1.7,1.35-3.06,3.05-3.06c1.7,0,3.07,1.36,3.07,3.06C69.72,73.36,62.3,80.77,53.22,80.77"/>
	</g>
</g>
</svg>
