<?xml version="1.0" encoding="utf-8"?>
<!-- Generator: Adobe Illustrator 23.1.0, SVG Export Plug-In . SVG Version: 6.00 Build 0)  -->
<svg version="1.1" id="레이어_1" xmlns="http://www.w3.org/2000/svg" xmlns:xlink="http://www.w3.org/1999/xlink" x="0px"
	 y="0px" viewBox="0 0 104 107" style="enable-background:new 0 0 104 107;" xml:space="preserve">
<style type="text/css">
	.st0{fill:#006934;}
	.st1{fill:#FFFFFF;}
</style>
<g>
	<path class="st0" d="M100,79.93c0,12.01-9.71,21.78-21.69,21.78h-52.9c-11.97,0-21.68-9.77-21.68-21.78V26.86
		c0-12,9.71-21.76,21.68-21.76h52.9C90.29,5.1,100,14.86,100,26.86V79.93z"/>
	<path class="st1" d="M88.82,60.16c-1.35-1.37-3.73-1.37-5.1,0c-0.56,0.57-1.19,1.26-1.88,2.01c-4.3,4.78-10.83,11.99-25.67,11.99
		c-3.93,0-8.28-0.51-12.94-1.53c-3.04-0.68-6.04-1.01-8.92-1.01c-12.15,0-18.64,5.92-19.35,6.59c-0.69,0.66-1.07,1.58-1.09,2.54
		c-0.01,0.96,0.34,1.87,1.01,2.55c1.33,1.37,3.72,1.41,5.09,0.09c0.04-0.04,4.73-4.33,13.86-4.5l-4.92,5.75
		c-0.63,0.74-0.94,1.67-0.86,2.63s0.53,1.84,1.24,2.45c1.44,1.26,3.82,1.09,5.07-0.38l8-9.3c0.06-0.06,0.1-0.14,0.14-0.22
		c9.42,1.96,17.75,2,24.97,0.09c0.01,0.05,0.05,0.09,0.09,0.13l8,9.3c0.68,0.8,1.67,1.25,2.72,1.25c0.85,0,1.69-0.31,2.35-0.88
		c0.71-0.61,1.16-1.49,1.23-2.45c0.07-0.96-0.23-1.89-0.86-2.63l-6.38-7.43c6.2-3.19,10.15-7.54,12.54-10.2l0.31-0.31
		c0.49-0.56,0.92-1.04,1.34-1.47c0.68-0.66,1.05-1.57,1.05-2.54C89.87,61.75,89.5,60.85,88.82,60.16z"/>
	<g>
		<g>
			<path class="st1" d="M32.25,41.81c-4.19,0-7.6-3.42-7.6-7.6c0-4.21,3.41-7.62,7.6-7.62c4.18,0,7.58,3.41,7.58,7.62
				C39.83,38.39,36.43,41.81,32.25,41.81z M32.25,32.74c-0.81,0-1.46,0.66-1.46,1.47c0,0.8,0.65,1.45,1.46,1.45
				c0.8,0,1.44-0.65,1.44-1.45C33.69,33.39,33.05,32.74,32.25,32.74z"/>
		</g>
		<g>
			<g>
				<path class="st1" d="M32.25,24.67c-1.7,0-3.07-1.39-3.07-3.09v-1.47c0-1.7,1.37-3.09,3.07-3.09c1.68,0,3.06,1.39,3.06,3.09v1.47
					C35.3,23.28,33.93,24.67,32.25,24.67z"/>
			</g>
			<g>
				<path class="st1" d="M32.25,51.36c-1.7,0-3.07-1.36-3.07-3.07v-1.47c0-1.7,1.37-3.09,3.07-3.09c1.68,0,3.06,1.39,3.06,3.09v1.47
					C35.3,50,33.93,51.36,32.25,51.36z"/>
			</g>
		</g>
		<g>
			<g>
				<path class="st1" d="M46.3,37.28h-1.48c-1.7,0-3.07-1.38-3.07-3.07c0-1.69,1.37-3.08,3.07-3.08h1.48c1.69,0,3.06,1.39,3.06,3.08
					C49.36,35.89,47.99,37.28,46.3,37.28z"/>
			</g>
			<g>
				<path class="st1" d="M19.67,37.28H18.2c-1.7,0-3.07-1.38-3.07-3.07c0-1.69,1.37-3.08,3.07-3.08h1.47c1.68,0,3.06,1.39,3.06,3.08
					C22.74,35.89,21.35,37.28,19.67,37.28z"/>
			</g>
		</g>
		<g>
			<g>
				<path class="st1" d="M41.13,28.35c-0.78,0-1.56-0.29-2.15-0.9c-1.2-1.2-1.2-3.15,0-4.34l1.04-1.06c1.2-1.2,3.13-1.2,4.34,0
					c1.18,1.2,1.18,3.15,0,4.34l-1.05,1.06C42.71,28.06,41.92,28.35,41.13,28.35z"/>
			</g>
			<g>
				<path class="st1" d="M22.31,47.25c-0.78,0-1.57-0.29-2.16-0.9c-1.19-1.2-1.19-3.14,0-4.35l1.04-1.05c1.2-1.19,3.14-1.19,4.35,0
					c1.19,1.2,1.19,3.14,0,4.35l-1.05,1.05C23.88,46.95,23.1,47.25,22.31,47.25z"/>
			</g>
		</g>
		<g>
			<g>
				<path class="st1" d="M42.18,47.25c-0.79,0-1.57-0.29-2.17-0.9l-1.04-1.05c-1.2-1.2-1.2-3.14,0-4.35c1.19-1.19,3.14-1.19,4.33,0
					L44.35,42c1.18,1.2,1.18,3.15,0,4.35C43.75,46.95,42.97,47.25,42.18,47.25z"/>
			</g>
			<g>
				<path class="st1" d="M23.36,28.35c-0.79,0-1.57-0.29-2.18-0.9l-1.04-1.06c-1.19-1.19-1.19-3.14,0-4.34c1.19-1.2,3.14-1.2,4.33,0
					l1.05,1.06c1.19,1.19,1.19,3.14,0,4.34C24.92,28.06,24.13,28.35,23.36,28.35z"/>
			</g>
		</g>
	</g>
</g>
</svg>
