<?xml version="1.0" encoding="utf-8"?>
<!-- Generator: Adobe Illustrator 23.1.0, SVG Export Plug-In . SVG Version: 6.00 Build 0)  -->
<svg version="1.1" id="레이어_1" xmlns="http://www.w3.org/2000/svg" xmlns:xlink="http://www.w3.org/1999/xlink" x="0px"
	 y="0px" viewBox="0 0 595.28 841.89" style="enable-background:new 0 0 595.28 841.89;" xml:space="preserve">
<style type="text/css">
	.st0{fill:#FFFFFF;}
	.st1{fill:url(#패스_606_1_);}
	.st2{fill:url(#패스_607_1_);}
	.st3{fill:url(#패스_608_1_);}
	.st4{fill:url(#패스_609_1_);}
	.st5{fill:url(#패스_610_1_);}
	.st6{fill:url(#패스_611_1_);}
	.st7{fill:url(#패스_612_1_);}
	.st8{fill:url(#패스_613_1_);}
	.st9{fill:url(#패스_614_1_);}
	.st10{fill:url(#패스_615_1_);}
	.st11{fill:url(#패스_616_1_);}
	.st12{fill:url(#패스_617_1_);}
	.st13{fill:url(#패스_618_1_);}
	.st14{fill:url(#패스_619_1_);}
	.st15{fill:url(#패스_620_1_);}
	.st16{fill:url(#패스_621_1_);}
	.st17{fill:url(#패스_622_1_);}
	.st18{fill:url(#패스_623_1_);}
	.st19{fill:url(#패스_624_1_);}
	.st20{fill:url(#사각형_79_1_);}
	.st21{fill:url(#패스_625_1_);}
	.st22{fill:url(#패스_626_1_);}
	.st23{fill:url(#패스_627_1_);}
	.st24{fill:url(#패스_628_1_);}
	.st25{fill:url(#패스_629_1_);}
	.st26{fill:url(#패스_630_1_);}
	.st27{fill:url(#패스_631_1_);}
	.st28{fill:url(#패스_632_1_);}
	.st29{fill:url(#패스_633_1_);}
	.st30{fill:url(#패스_634_1_);}
	.st31{fill:url(#패스_635_1_);}
	.st32{fill:url(#패스_636_1_);}
	.st33{fill:url(#패스_637_1_);}
	.st34{fill:url(#패스_638_1_);}
	.st35{fill:url(#패스_639_1_);}
	.st36{fill:url(#패스_640_1_);}
	.st37{fill:url(#패스_641_1_);}
	.st38{fill:url(#패스_642_1_);}
	.st39{fill:url(#패스_643_1_);}
</style>
<g>
	<path class="st0" d="M214.99,490.55c0.64,0.37,1.59,0.68,2.58,0.68c1.25,0,1.95-0.58,1.95-1.46c0-0.8-0.54-1.28-1.9-1.77
		c-1.76-0.64-2.88-1.57-2.88-3.11c0-1.74,1.46-3.07,3.77-3.07c1.15,0,2.01,0.25,2.57,0.54l-0.48,1.56c-0.38-0.2-1.12-0.5-2.13-0.5
		c-1.24,0-1.77,0.66-1.77,1.28c0,0.83,0.62,1.2,2.04,1.76c1.85,0.7,2.76,1.63,2.76,3.17c0,1.72-1.3,3.2-4.06,3.2
		c-1.13,0-2.3-0.31-2.88-0.66L214.99,490.55z"/>
	<path class="st0" d="M227.26,488c0.01-0.71-0.3-1.88-1.6-1.88c-1.21,0-1.72,1.09-1.79,1.88H227.26z M223.87,489.36
		c0.05,1.4,1.14,2,2.38,2c0.9,0,1.55-0.13,2.14-0.35l0.29,1.35c-0.67,0.27-1.59,0.48-2.7,0.48c-2.51,0-3.98-1.54-3.98-3.9
		c0-2.14,1.3-4.15,3.77-4.15c2.5,0,3.33,2.06,3.33,3.76c0,0.36-0.03,0.65-0.06,0.82H223.87z"/>
	<path class="st0" d="M231.4,488.82c0,1.49,0.73,2.62,1.92,2.62c1.11,0,1.89-1.09,1.89-2.64c0-1.21-0.54-2.58-1.87-2.58
		C231.95,486.21,231.4,487.54,231.4,488.82 M237.22,488.74c0,2.84-2,4.11-3.96,4.11c-2.19,0-3.87-1.5-3.87-3.98
		c0-2.54,1.67-4.09,4-4.09C235.68,484.78,237.22,486.4,237.22,488.74"/>
	<path class="st0" d="M243.06,488.05c0-0.17-0.01-0.36-0.06-0.52c-0.21-0.71-0.77-1.25-1.59-1.25c-1.09,0-1.9,0.95-1.9,2.52
		c0,1.31,0.67,2.38,1.89,2.38c0.73,0,1.36-0.48,1.58-1.17c0.04-0.21,0.08-0.48,0.08-0.7V488.05z M245.08,484.96
		c-0.03,0.52-0.06,1.16-0.06,2.22v4.37c0,1.62-0.33,2.78-1.14,3.51c-0.81,0.71-1.92,0.94-2.98,0.94c-0.98,0-2.03-0.21-2.69-0.62
		l0.43-1.48c0.49,0.29,1.32,0.59,2.25,0.59c1.27,0,2.22-0.66,2.22-2.33v-0.67h-0.03c-0.44,0.68-1.24,1.14-2.25,1.14
		c-1.92,0-3.28-1.58-3.28-3.77c0-2.54,1.65-4.08,3.5-4.08c1.17,0,1.87,0.57,2.23,1.21h0.03l0.08-1.03H245.08z"/>
	<path class="st0" d="M247.49,484.96l0.81,3.51c0.18,0.82,0.35,1.66,0.49,2.5h0.03c0.16-0.84,0.41-1.69,0.63-2.49l1-3.52h1.58
		l0.97,3.42c0.24,0.9,0.44,1.74,0.62,2.58h0.03c0.13-0.84,0.3-1.68,0.51-2.58l0.86-3.42h1.92l-2.43,7.72h-1.81l-0.92-3.14
		c-0.24-0.81-0.41-1.54-0.59-2.47h-0.03c-0.16,0.95-0.37,1.72-0.59,2.47l-0.98,3.14h-1.82l-2.28-7.72H247.49z"/>
	<path class="st0" d="M257.39,484.96h1.97v7.72h-1.97V484.96z M259.47,482.8c0,0.59-0.43,1.04-1.11,1.04
		c-0.65,0-1.08-0.46-1.08-1.04c0-0.6,0.44-1.07,1.09-1.07C259.04,481.74,259.45,482.2,259.47,482.8"/>
	<path class="st0" d="M262.61,489.45c0,0.19,0.02,0.36,0.07,0.54c0.19,0.79,0.89,1.37,1.71,1.37c1.24,0,1.97-1.03,1.97-2.55
		c0-1.37-0.67-2.47-1.92-2.47c-0.81,0-1.55,0.58-1.75,1.44c-0.05,0.16-0.08,0.33-0.08,0.49V489.45z M260.66,487.53
		c0-1.01-0.03-1.84-0.06-2.57h1.72l0.09,1.19h0.03c0.57-0.87,1.47-1.37,2.65-1.37c1.78,0,3.25,1.52,3.25,3.94
		c0,2.79-1.76,4.13-3.52,4.13c-0.96,0-1.77-0.41-2.17-1.03h-0.03v4h-1.95V487.53z"/>
	<path class="st0" d="M270.66,488.82c0,1.49,0.73,2.62,1.92,2.62c1.11,0,1.89-1.09,1.89-2.64c0-1.21-0.54-2.58-1.87-2.58
		C271.22,486.21,270.66,487.54,270.66,488.82 M276.48,488.74c0,2.84-2,4.11-3.97,4.11c-2.18,0-3.87-1.5-3.87-3.98
		c0-2.54,1.67-4.09,4-4.09C274.94,484.78,276.48,486.4,276.48,488.74"/>
</g>
<polygon class="st0" points="279.85,481.99 286.02,481.99 286.02,483.59 281.8,483.59 281.8,486.54 285.73,486.54 285.73,488.14 
	281.8,488.14 281.8,492.68 279.85,492.68 "/>
<g>
	<path class="st0" d="M288.13,488.82c0,1.49,0.73,2.62,1.92,2.62c1.11,0,1.89-1.09,1.89-2.64c0-1.21-0.54-2.58-1.87-2.58
		C288.68,486.21,288.13,487.54,288.13,488.82 M293.94,488.74c0,2.84-2,4.11-3.96,4.11c-2.19,0-3.87-1.5-3.87-3.98
		c0-2.54,1.67-4.09,3.99-4.09C292.41,484.78,293.94,486.4,293.94,488.74"/>
	<path class="st0" d="M294.75,487.44c0-1.05-0.02-1.79-0.06-2.49h1.7l0.06,1.48h0.07c0.38-1.09,1.28-1.65,2.11-1.65
		c0.19,0,0.3,0.02,0.46,0.05v1.84c-0.16-0.03-0.33-0.06-0.57-0.06c-0.94,0-1.57,0.6-1.75,1.48c-0.03,0.18-0.06,0.38-0.06,0.6v3.99
		h-1.95V487.44z"/>
	<path class="st0" d="M304.23,488c0.01-0.71-0.3-1.88-1.6-1.88c-1.21,0-1.71,1.09-1.79,1.88H304.23z M300.84,489.36
		c0.05,1.4,1.14,2,2.38,2c0.9,0,1.55-0.13,2.14-0.35l0.28,1.35c-0.67,0.27-1.58,0.48-2.7,0.48c-2.5,0-3.98-1.54-3.98-3.9
		c0-2.14,1.3-4.15,3.77-4.15c2.5,0,3.33,2.06,3.33,3.76c0,0.36-0.03,0.65-0.06,0.82H300.84z"/>
	<path class="st0" d="M306.75,490.89c0.45,0.27,1.29,0.55,1.98,0.55c0.86,0,1.24-0.35,1.24-0.86c0-0.52-0.31-0.79-1.27-1.12
		c-1.5-0.52-2.14-1.35-2.12-2.25c0-1.37,1.13-2.43,2.92-2.43c0.85,0,1.6,0.23,2.04,0.46l-0.38,1.38c-0.33-0.19-0.95-0.44-1.63-0.44
		c-0.7,0-1.08,0.33-1.08,0.81c0,0.49,0.36,0.73,1.35,1.08c1.39,0.51,2.04,1.22,2.06,2.37c0,1.39-1.09,2.4-3.14,2.4
		c-0.94,0-1.78-0.22-2.35-0.54L306.75,490.89z"/>
	<path class="st0" d="M314.9,482.76v2.2h1.86v1.46h-1.86v3.41c0,0.94,0.26,1.43,1,1.43c0.33,0,0.59-0.05,0.76-0.09l0.04,1.49
		c-0.29,0.11-0.79,0.19-1.41,0.19c-0.71,0-1.32-0.24-1.68-0.64c-0.41-0.44-0.6-1.14-0.6-2.15v-3.63h-1.11v-1.46h1.11v-1.74
		L314.9,482.76z"/>
	<path class="st0" d="M321.44,488.82c0,1.49,0.73,2.62,1.92,2.62c1.11,0,1.89-1.09,1.89-2.64c0-1.21-0.54-2.58-1.87-2.58
		C322,486.21,321.44,487.54,321.44,488.82 M327.26,488.74c0,2.84-2,4.11-3.96,4.11c-2.19,0-3.87-1.5-3.87-3.98
		c0-2.54,1.66-4.09,3.99-4.09C325.72,484.78,327.26,486.4,327.26,488.74"/>
	<path class="st0" d="M328.29,492.68v-6.27h-1.05v-1.46h1.05v-0.33c0-1,0.27-2,0.94-2.63c0.57-0.54,1.35-0.74,2.01-0.74
		c0.52,0,0.94,0.08,1.25,0.19l-0.14,1.51c-0.21-0.08-0.47-0.14-0.83-0.14c-0.97,0-1.3,0.81-1.3,1.76v0.4h1.7v1.46h-1.68v6.27H328.29
		z"/>
</g>
<polygon class="st0" points="336.85,481.99 336.85,486.27 341.37,486.27 341.37,481.99 343.32,481.99 343.32,492.68 341.37,492.68 
	341.37,487.97 336.85,487.97 336.85,492.68 334.9,492.68 334.9,481.99 "/>
<g>
	<path class="st0" d="M349.45,488c0.02-0.71-0.3-1.88-1.6-1.88c-1.2,0-1.71,1.09-1.79,1.88H349.45z M346.06,489.36
		c0.05,1.4,1.14,2,2.38,2c0.9,0,1.55-0.13,2.14-0.35l0.28,1.35c-0.66,0.27-1.58,0.48-2.69,0.48c-2.51,0-3.98-1.54-3.98-3.9
		c0-2.14,1.3-4.15,3.77-4.15c2.5,0,3.33,2.06,3.33,3.76c0,0.36-0.03,0.65-0.07,0.82H346.06z"/>
	<path class="st0" d="M356.16,488.9c-1.38-0.03-2.7,0.27-2.7,1.44c0,0.76,0.49,1.11,1.11,1.11c0.78,0,1.35-0.51,1.53-1.07
		c0.05-0.14,0.06-0.3,0.06-0.42V488.9z M356.41,492.68l-0.12-0.86h-0.05c-0.48,0.6-1.28,1.03-2.28,1.03c-1.55,0-2.42-1.13-2.42-2.3
		c0-1.95,1.73-2.93,4.58-2.92v-0.13c0-0.5-0.2-1.35-1.57-1.35c-0.76,0-1.55,0.24-2.08,0.57l-0.38-1.27
		c0.57-0.35,1.57-0.68,2.79-0.68c2.47,0,3.19,1.57,3.19,3.25v2.79c0,0.7,0.03,1.38,0.11,1.86H356.41z"/>
</g>
<rect x="359.32" y="481.42" class="st0" width="1.97" height="11.25"/>
<g id="그룹_60" transform="translate(-176 -346.513)">
	<g id="그룹_55" transform="translate(216.974 490.177)">
		
			<linearGradient id="패스_606_1_" gradientUnits="userSpaceOnUse" x1="-238.8974" y1="755.178" x2="-239.5579" y2="766.3271" gradientTransform="matrix(7.376 0 0 -11.7046 1874.6541 9251.7139)">
			<stop  offset="0" style="stop-color:#137D5E"/>
			<stop  offset="0.508" style="stop-color:#3FAC61"/>
			<stop  offset="1" style="stop-color:#0D532D"/>
		</linearGradient>
		<path id="패스_606" class="st1" d="M106.11,392.21c1.48,0.82,3.14,1.26,4.84,1.27c2.35,0,3.65-1.09,3.65-2.73
			c0-1.5-1.01-2.39-3.56-3.31c-3.3-1.19-5.4-2.94-5.4-5.81c0-3.27,2.72-5.75,7.06-5.75c1.66-0.05,3.3,0.3,4.8,1.01l-0.89,2.93
			c-1.23-0.63-2.6-0.95-3.98-0.94c-2.31,0-3.32,1.24-3.32,2.4c0,1.55,1.15,2.25,3.82,3.3c3.47,1.31,5.16,3.05,5.16,5.93
			c0,3.21-2.43,5.99-7.59,5.99c-1.87,0.02-3.72-0.41-5.4-1.24L106.11,392.21z"/>
		
			<linearGradient id="패스_607_1_" gradientUnits="userSpaceOnUse" x1="-238.4089" y1="743.2343" x2="-239.0694" y2="754.3834" gradientTransform="matrix(7.5578 0 0 -8.5786 1928.7043 6784.2388)">
			<stop  offset="0" style="stop-color:#137D5E"/>
			<stop  offset="0.508" style="stop-color:#3FAC61"/>
			<stop  offset="1" style="stop-color:#0D532D"/>
		</linearGradient>
		<path id="패스_607" class="st2" d="M129.07,387.43c0.23-1.7-0.96-3.26-2.66-3.5c-0.11-0.02-0.22-0.02-0.34-0.03
			c-1.87,0.11-3.34,1.65-3.36,3.52H129.07z M122.72,389.98c0.08,2.17,1.91,3.86,4.07,3.77c0.13,0,0.25-0.02,0.38-0.03
			c1.36,0.03,2.72-0.19,4.01-0.64l0.53,2.52c-1.61,0.61-3.32,0.91-5.04,0.89c-3.76,0.35-7.08-2.42-7.43-6.18
			c-0.03-0.38-0.04-0.76-0.01-1.13c0-4.01,2.43-7.77,7.06-7.77c4.69,0,6.23,3.86,6.23,7.04c0,0.51-0.04,1.03-0.12,1.54
			L122.72,389.98z"/>
		
			<linearGradient id="패스_608_1_" gradientUnits="userSpaceOnUse" x1="-239.0608" y1="743.2545" x2="-239.7213" y2="754.4037" gradientTransform="matrix(8.3421 0 0 -8.5824 2135.7563 6787.2715)">
			<stop  offset="0" style="stop-color:#137D5E"/>
			<stop  offset="0.508" style="stop-color:#3FAC61"/>
			<stop  offset="1" style="stop-color:#0D532D"/>
		</linearGradient>
		<path id="패스_608" class="st3" d="M136.81,388.97c0,2.79,1.36,4.9,3.59,4.9c2.07,0,3.52-2.05,3.52-4.95
			c0-2.26-1.01-4.83-3.51-4.83C137.84,384.08,136.8,386.57,136.81,388.97 M147.68,388.82c0.3,3.94-2.65,7.37-6.59,7.67
			c-0.27,0.02-0.55,0.03-0.82,0.01c-3.85,0.15-7.1-2.85-7.25-6.71c-0.01-0.25-0.01-0.49,0.01-0.74c-0.29-3.93,2.66-7.36,6.59-7.65
			c0.3-0.02,0.59-0.03,0.89-0.01c3.82-0.14,7.04,2.84,7.19,6.66C147.71,388.32,147.7,388.57,147.68,388.82"/>
		
			<linearGradient id="패스_609_1_" gradientUnits="userSpaceOnUse" x1="-237.6402" y1="755.5798" x2="-238.3007" y2="766.7289" gradientTransform="matrix(8.016 0 0 -11.9275 2061.5981 9430.9688)">
			<stop  offset="0" style="stop-color:#137D5E"/>
			<stop  offset="0.508" style="stop-color:#3FAC61"/>
			<stop  offset="1" style="stop-color:#0D532D"/>
		</linearGradient>
		<path id="패스_609" class="st4" d="M158.64,387.52c0.01-0.33-0.03-0.66-0.11-0.98c-0.32-1.38-1.56-2.35-2.97-2.35
			c-2.05,0-3.56,1.78-3.56,4.72c0,2.45,1.25,4.45,3.53,4.45c1.36,0,2.56-0.89,2.97-2.19c0.09-0.43,0.14-0.87,0.15-1.31
			L158.64,387.52z M162.4,381.73c-0.06,0.98-0.12,2.17-0.12,4.15v8.18c0,3.03-0.62,5.2-2.13,6.56c-1.59,1.24-3.57,1.86-5.58,1.75
			c-1.75,0.05-3.49-0.35-5.04-1.16l0.8-2.76c1.29,0.72,2.74,1.1,4.21,1.1c2.11,0.19,3.98-1.36,4.17-3.47
			c0.03-0.3,0.02-0.59-0.02-0.89v-1.26h-0.06c-0.94,1.39-2.53,2.2-4.21,2.14c-3.59,0-6.14-2.96-6.14-7.05
			c0-4.76,3.08-7.63,6.56-7.63c1.71-0.1,3.33,0.78,4.18,2.26h0.06l0.15-1.94L162.4,381.73z"/>
		
			<linearGradient id="패스_610_1_" gradientUnits="userSpaceOnUse" x1="-242.3013" y1="741.1907" x2="-242.9618" y2="752.3398" gradientTransform="matrix(12.161 0 0 -8.2 3122.7766 6485.251)">
			<stop  offset="0" style="stop-color:#137D5E"/>
			<stop  offset="0.508" style="stop-color:#3FAC61"/>
			<stop  offset="1" style="stop-color:#0D532D"/>
		</linearGradient>
		<path id="패스_610" class="st5" d="M166.91,381.73l1.51,6.56c0.33,1.54,0.66,3.11,0.92,4.68h0.06c0.3-1.57,0.77-3.17,1.19-4.65
			l1.87-6.59h2.96l1.81,6.41c0.44,1.69,0.83,3.26,1.15,4.83h0.06c0.24-1.57,0.57-3.14,0.95-4.83l1.6-6.41h3.59l-4.54,14.44h-3.38
			l-1.72-5.87c-0.45-1.52-0.82-3.07-1.1-4.63h-0.06c-0.27,1.56-0.64,3.11-1.1,4.63l-1.84,5.87h-3.42l-4.27-14.44L166.91,381.73z"/>
		
			<linearGradient id="패스_611_1_" gradientUnits="userSpaceOnUse" x1="-193.3421" y1="754.9499" x2="-194.0026" y2="766.099" gradientTransform="matrix(2.325 0 0 -11.6181 637.2086 9183.2734)">
			<stop  offset="0" style="stop-color:#137D5E"/>
			<stop  offset="0.508" style="stop-color:#3FAC61"/>
			<stop  offset="1" style="stop-color:#0D532D"/>
		</linearGradient>
		<path id="패스_611" class="st6" d="M185.45,381.73h3.68v14.44h-3.68V381.73z M189.32,377.7c-0.06,1.13-1.02,2-2.15,1.94
			c-1.05-0.05-1.89-0.89-1.94-1.94c0.03-1.13,0.98-2.02,2.11-1.99C188.42,375.75,189.29,376.62,189.32,377.7"/>
		
			<linearGradient id="패스_612_1_" gradientUnits="userSpaceOnUse" x1="-235.7952" y1="755.0388" x2="-236.4557" y2="766.1879" gradientTransform="matrix(8.221 0 0 -11.7278 2138.1614 9273.2109)">
			<stop  offset="0" style="stop-color:#137D5E"/>
			<stop  offset="0.508" style="stop-color:#3FAC61"/>
			<stop  offset="1" style="stop-color:#0D532D"/>
		</linearGradient>
		<path id="패스_612" class="st7" d="M195.21,390.13c-0.01,0.34,0.03,0.67,0.12,1c0.34,1.49,1.67,2.55,3.2,2.56
			c2.31,0,3.68-1.94,3.68-4.77c0-2.55-1.25-4.63-3.59-4.63c-1.59,0.03-2.94,1.15-3.27,2.7c-0.09,0.3-0.14,0.61-0.15,0.92
			L195.21,390.13z M191.56,386.54c0-1.9-0.06-3.45-0.12-4.81h3.21l0.18,2.23h0.06c1.08-1.67,2.96-2.64,4.95-2.56
			c3.33,0,6.08,2.85,6.08,7.37c0,5.22-3.29,7.74-6.59,7.74c-1.59,0.08-3.12-0.64-4.06-1.93h-0.06v7.48h-3.65L191.56,386.54z"/>
		
			<linearGradient id="패스_613_1_" gradientUnits="userSpaceOnUse" x1="-235.2649" y1="743.2548" x2="-235.9254" y2="754.4039" gradientTransform="matrix(8.3471 0 0 -8.5825 2178.7278 6787.3198)">
			<stop  offset="0" style="stop-color:#137D5E"/>
			<stop  offset="0.508" style="stop-color:#3FAC61"/>
			<stop  offset="1" style="stop-color:#0D532D"/>
		</linearGradient>
		<path id="패스_613" class="st8" d="M210.28,388.97c0,2.79,1.37,4.9,3.59,4.9c2.07,0,3.52-2.05,3.52-4.95c0-2.26-1-4.83-3.5-4.83
			C211.31,384.08,210.27,386.57,210.28,388.97 M221.16,388.82c0.3,3.94-2.66,7.37-6.59,7.67c-0.28,0.02-0.55,0.03-0.83,0.01
			c-3.85,0.15-7.1-2.85-7.25-6.71c-0.01-0.24-0.01-0.49,0.01-0.73c-0.29-3.93,2.65-7.36,6.58-7.65c0.3-0.02,0.59-0.03,0.89-0.01
			c3.83-0.14,7.05,2.84,7.19,6.67C221.18,388.32,221.17,388.57,221.16,388.82"/>
	</g>
	
		<linearGradient id="패스_614_1_" gradientUnits="userSpaceOnUse" x1="-12.0652" y1="1244.3622" x2="-12.7257" y2="1255.5114" gradientTransform="matrix(6.554 0 0 -11.356 530.1736 15033.0156)">
		<stop  offset="0" style="stop-color:#137D5E"/>
		<stop  offset="0.508" style="stop-color:#3FAC61"/>
		<stop  offset="1" style="stop-color:#0D532D"/>
	</linearGradient>
	<path id="패스_614" class="st9" d="M444.45,866.36h11.54v2.99h-7.89v5.53h7.36v2.99h-7.36v8.49h-3.65L444.45,866.36z"/>
	<g id="그룹_56" transform="translate(292.987 489.657)">
		
			<linearGradient id="패스_615_1_" gradientUnits="userSpaceOnUse" x1="-309.5732" y1="743.774" x2="-310.2337" y2="754.9232" gradientTransform="matrix(8.3422 0 0 -8.5823 2754.155 6792.1821)">
			<stop  offset="0" style="stop-color:#137D5E"/>
			<stop  offset="0.508" style="stop-color:#3FAC61"/>
			<stop  offset="1" style="stop-color:#0D532D"/>
		</linearGradient>
		<path id="패스_615" class="st10" d="M166.95,389.49c0,2.79,1.36,4.9,3.59,4.9c2.08,0,3.53-2.05,3.53-4.95
			c0-2.26-1.01-4.83-3.5-4.83C167.99,384.6,166.95,387.09,166.95,389.49 M177.83,389.34c0.3,3.94-2.66,7.37-6.59,7.67
			c-0.27,0.02-0.55,0.03-0.82,0.01c-3.85,0.15-7.1-2.85-7.25-6.7c-0.01-0.25-0.01-0.49,0.01-0.74c-0.29-3.93,2.65-7.35,6.58-7.65
			c0.3-0.02,0.59-0.03,0.89-0.01c3.82-0.15,7.05,2.83,7.19,6.66C177.86,388.83,177.85,389.09,177.83,389.34"/>
		
			<linearGradient id="패스_616_1_" gradientUnits="userSpaceOnUse" x1="-292.7663" y1="742.7561" x2="-293.4268" y2="753.9052" gradientTransform="matrix(4.663 0 0 -8.388 1549.1786 6638.4966)">
			<stop  offset="0" style="stop-color:#137D5E"/>
			<stop  offset="0.508" style="stop-color:#3FAC61"/>
			<stop  offset="1" style="stop-color:#0D532D"/>
		</linearGradient>
		<path id="패스_616" class="st11" d="M179.34,386.91c0-1.96-0.03-3.35-0.12-4.65h3.17l0.11,2.76h0.13
			c0.52-1.77,2.1-3.01,3.94-3.09c0.29,0,0.58,0.03,0.86,0.09v3.45c-0.35-0.07-0.71-0.11-1.07-0.12c-1.63-0.04-3.03,1.15-3.27,2.76
			c-0.07,0.37-0.11,0.75-0.12,1.13v7.47h-3.65L179.34,386.91z"/>
		
			<linearGradient id="패스_617_1_" gradientUnits="userSpaceOnUse" x1="-306.1713" y1="743.7383" x2="-306.8318" y2="754.8875" gradientTransform="matrix(7.5534 0 0 -8.5755 2507.5264 6786.8091)">
			<stop  offset="0" style="stop-color:#137D5E"/>
			<stop  offset="0.508" style="stop-color:#3FAC61"/>
			<stop  offset="1" style="stop-color:#0D532D"/>
		</linearGradient>
		<path id="패스_617" class="st12" d="M197.09,387.95c0.23-1.7-0.96-3.27-2.66-3.5c-0.11-0.01-0.22-0.02-0.33-0.03
			c-1.87,0.11-3.34,1.65-3.36,3.52H197.09z M190.73,390.5c0.08,2.17,1.91,3.86,4.08,3.77c0.13,0,0.25-0.02,0.38-0.03
			c1.36,0.03,2.72-0.19,4.01-0.64l0.53,2.52c-1.61,0.61-3.32,0.92-5.04,0.89c-3.76,0.35-7.08-2.42-7.43-6.18
			c-0.03-0.37-0.04-0.75-0.01-1.13c0-4.01,2.43-7.77,7.06-7.77c4.68,0,6.23,3.86,6.23,7.04c0,0.51-0.04,1.03-0.11,1.54L190.73,390.5
			z"/>
		
			<linearGradient id="패스_618_1_" gradientUnits="userSpaceOnUse" x1="-298.452" y1="743.6224" x2="-299.1125" y2="754.7716" gradientTransform="matrix(5.833 0 0 -8.5533 1947.6718 6769.2354)">
			<stop  offset="0" style="stop-color:#137D5E"/>
			<stop  offset="0.508" style="stop-color:#3FAC61"/>
			<stop  offset="1" style="stop-color:#0D532D"/>
		</linearGradient>
		<path id="패스_618" class="st13" d="M201.8,393.35c1.13,0.64,2.4,0.99,3.7,1.04c1.61,0,2.32-0.65,2.32-1.61
			c0-0.96-0.59-1.48-2.38-2.1c-2.82-0.98-4.01-2.52-3.97-4.21c0-2.56,2.11-4.54,5.46-4.54c1.32-0.01,2.63,0.28,3.83,0.85l-0.72,2.59
			c-0.93-0.53-1.98-0.81-3.05-0.83c-1.31,0-2.01,0.62-2.01,1.51c0,0.92,0.68,1.37,2.52,2.01c2.61,0.96,3.82,2.29,3.86,4.43
			c0,2.61-2.04,4.5-5.87,4.5c-1.53,0.03-3.04-0.31-4.4-1L201.8,393.35z"/>
		
			<linearGradient id="패스_619_1_" gradientUnits="userSpaceOnUse" x1="-293.6083" y1="752.66" x2="-294.2688" y2="763.8091" gradientTransform="matrix(5.169 0 0 -10.7108 1734.439 8473.332)">
			<stop  offset="0" style="stop-color:#137D5E"/>
			<stop  offset="0.508" style="stop-color:#3FAC61"/>
			<stop  offset="1" style="stop-color:#0D532D"/>
		</linearGradient>
		<path id="패스_619" class="st14" d="M217.04,378.13v4.12h3.48v2.73h-3.48v6.38c0,1.76,0.48,2.67,1.87,2.67
			c0.48,0,0.96-0.06,1.42-0.18l0.07,2.79c-0.86,0.26-1.75,0.38-2.64,0.35c-1.17,0.06-2.31-0.38-3.15-1.19
			c-0.87-1.15-1.28-2.59-1.13-4.03v-6.8h-2.07v-2.73h2.07v-3.26L217.04,378.13z"/>
		
			<linearGradient id="패스_620_1_" gradientUnits="userSpaceOnUse" x1="-306.3487" y1="743.7737" x2="-307.0092" y2="754.9229" gradientTransform="matrix(8.3443 0 0 -8.5823 2790.2256 6792.1338)">
			<stop  offset="0" style="stop-color:#137D5E"/>
			<stop  offset="0.508" style="stop-color:#3FAC61"/>
			<stop  offset="1" style="stop-color:#0D532D"/>
		</linearGradient>
		<path id="패스_620" class="st15" d="M229.29,389.49c0,2.79,1.37,4.9,3.59,4.9c2.08,0,3.53-2.05,3.53-4.95
			c0-2.26-1.01-4.83-3.5-4.83C230.33,384.6,229.29,387.09,229.29,389.49 M240.18,389.34c0.3,3.94-2.66,7.37-6.59,7.67
			c-0.27,0.02-0.55,0.03-0.82,0.01c-3.85,0.15-7.1-2.85-7.25-6.7c-0.01-0.25-0.01-0.5,0.01-0.74c-0.3-3.93,2.65-7.35,6.58-7.65
			c0.3-0.02,0.6-0.03,0.89-0.01c3.83-0.15,7.05,2.84,7.2,6.67C240.2,388.84,240.2,389.09,240.18,389.34"/>
		
			<linearGradient id="패스_621_1_" gradientUnits="userSpaceOnUse" x1="-293.9357" y1="756.9103" x2="-294.5962" y2="768.0594" gradientTransform="matrix(5.573 0 0 -12.1487 1884.0548 9608.9209)">
			<stop  offset="0" style="stop-color:#137D5E"/>
			<stop  offset="0.508" style="stop-color:#3FAC61"/>
			<stop  offset="1" style="stop-color:#0D532D"/>
		</linearGradient>
		<path id="패스_621" class="st16" d="M242.1,396.71v-11.73h-1.96v-2.73h1.96v-0.62c-0.1-1.81,0.53-3.59,1.75-4.93
			c1.04-0.92,2.38-1.42,3.77-1.39c0.79-0.01,1.58,0.1,2.34,0.35l-0.26,2.82c-0.49-0.19-1.02-0.28-1.55-0.27
			c-1.81,0-2.43,1.51-2.43,3.29v0.74h3.17v2.73h-3.14v11.73L242.1,396.71z"/>
	</g>
	
		<linearGradient id="패스_622_1_" gradientUnits="userSpaceOnUse" x1="-13.4739" y1="1244.3679" x2="-14.1344" y2="1255.5171" gradientTransform="matrix(8.942 0 0 -11.358 677.0146 15035.5557)">
		<stop  offset="0" style="stop-color:#137D5E"/>
		<stop  offset="0.508" style="stop-color:#3FAC61"/>
		<stop  offset="1" style="stop-color:#0D532D"/>
	</linearGradient>
	<path id="패스_622" class="st17" d="M551.11,866.36v8.01h8.45v-8.01h3.65v20.01h-3.65v-8.82h-8.45v8.82h-3.65v-20.01H551.11z"/>
	<g id="그룹_57" transform="translate(354.69 493.413)">
		
			<linearGradient id="패스_623_1_" gradientUnits="userSpaceOnUse" x1="-363.0441" y1="739.9835" x2="-363.7046" y2="751.1326" gradientTransform="matrix(7.5567 0 0 -8.5757 2961.2141 6751.0117)">
			<stop  offset="0" style="stop-color:#137D5E"/>
			<stop  offset="0.508" style="stop-color:#3FAC61"/>
			<stop  offset="1" style="stop-color:#0D532D"/>
		</linearGradient>
		<path id="패스_623" class="st18" d="M220,384.19c0.23-1.7-0.95-3.26-2.65-3.49c-0.11-0.02-0.23-0.02-0.34-0.03
			c-1.87,0.11-3.33,1.65-3.35,3.52H220z M213.66,386.75c0.08,2.16,1.89,3.85,4.06,3.77c0.13,0,0.26-0.02,0.39-0.03
			c1.36,0.03,2.72-0.19,4.01-0.64l0.53,2.52c-1.61,0.61-3.32,0.92-5.04,0.89c-3.76,0.35-7.08-2.42-7.43-6.17
			c-0.03-0.38-0.04-0.75-0.01-1.13c0-4.01,2.43-7.77,7.06-7.77c4.68,0,6.23,3.86,6.23,7.04c0.01,0.51-0.04,1.03-0.12,1.54
			L213.66,386.75z"/>
		
			<linearGradient id="패스_624_1_" gradientUnits="userSpaceOnUse" x1="-360.278" y1="739.9869" x2="-360.9385" y2="751.136" gradientTransform="matrix(7.06 0 0 -8.5766 2774.4656 6751.6816)">
			<stop  offset="0" style="stop-color:#137D5E"/>
			<stop  offset="0.508" style="stop-color:#3FAC61"/>
			<stop  offset="1" style="stop-color:#0D532D"/>
		</linearGradient>
		<path id="패스_624" class="st19" d="M232.55,385.88c-2.59-0.05-5.05,0.51-5.05,2.7c-0.09,1.05,0.68,1.98,1.74,2.08
			c0.11,0.01,0.22,0.01,0.34,0c1.28,0.02,2.43-0.78,2.86-1.99c0.08-0.26,0.12-0.53,0.12-0.8V385.88z M233.02,392.95l-0.23-1.61h-0.1
			c-1.06,1.26-2.63,1.97-4.27,1.93c-2.36,0.14-4.39-1.67-4.52-4.04c0-0.09-0.01-0.18-0.01-0.26c0-3.65,3.24-5.49,8.57-5.46v-0.23
			c0-0.94-0.38-2.52-2.93-2.52c-1.37,0-2.71,0.37-3.89,1.07l-0.7-2.37c1.6-0.88,3.4-1.32,5.22-1.28c4.63,0,5.97,2.94,5.97,6.09v5.21
			c-0.02,1.16,0.05,2.33,0.2,3.48L233.02,392.95z"/>
	</g>
	
		<linearGradient id="사각형_79_1_" gradientUnits="userSpaceOnUse" x1="69.5802" y1="1246.0571" x2="68.9198" y2="1257.2063" gradientTransform="matrix(2.094 0 0 -11.956 449.587 15800.6982)">
		<stop  offset="0" style="stop-color:#137D5E"/>
		<stop  offset="0.508" style="stop-color:#3FAC61"/>
		<stop  offset="1" style="stop-color:#0D532D"/>
	</linearGradient>
	<rect id="사각형_79" x="593.16" y="865.3" class="st20" width="3.69" height="21.06"/>
	<g id="그룹_58" transform="translate(176 346.513)">
		
			<linearGradient id="패스_625_1_" gradientUnits="userSpaceOnUse" x1="-115.7804" y1="898.6139" x2="-116.4409" y2="909.763" gradientTransform="matrix(2.3253 0 0 -11.6181 694.7708 10996.0439)">
			<stop  offset="0" style="stop-color:#137D5E"/>
			<stop  offset="0.508" style="stop-color:#3FAC61"/>
			<stop  offset="1" style="stop-color:#0D532D"/>
		</linearGradient>
		<path id="패스_625" class="st21" d="M423.31,525.4h3.67v14.44h-3.68L423.31,525.4z M427.18,521.36
			c0.01,1.07-0.85,1.95-1.92,1.96c-0.06,0-0.11,0-0.17-0.01c-1.05,0.06-1.95-0.75-2.01-1.81c0-0.05,0-0.1,0-0.14
			c0.03-1.13,0.98-2.02,2.11-1.99C426.28,519.41,427.15,520.28,427.18,521.36"/>
		
			<linearGradient id="패스_626_1_" gradientUnits="userSpaceOnUse" x1="-181.7892" y1="885.9271" x2="-182.4497" y2="897.0762" gradientTransform="matrix(7.491 0 0 -8.3933 1798.5804 7987.2622)">
			<stop  offset="0" style="stop-color:#137D5E"/>
			<stop  offset="0.508" style="stop-color:#3FAC61"/>
			<stop  offset="1" style="stop-color:#0D532D"/>
		</linearGradient>
		<path id="패스_626" class="st22" d="M429.42,529.7c0-1.66-0.04-3.06-0.12-4.3h3.2l0.18,2.17h0.09c0.97-1.6,2.73-2.55,4.6-2.49
			c2.53,0,5.13,1.63,5.13,6.2v8.58h-3.65v-8.16c0-2.09-0.77-3.65-2.76-3.65c-1.31,0.03-2.45,0.89-2.85,2.13
			c-0.11,0.38-0.16,0.78-0.15,1.18v8.49h-3.68L429.42,529.7z"/>
		
			<linearGradient id="패스_627_1_" gradientUnits="userSpaceOnUse" x1="-182.9161" y1="899.2437" x2="-183.5766" y2="910.3928" gradientTransform="matrix(8.012 0 0 -11.9274 1917.8936 11288.1221)">
			<stop  offset="0" style="stop-color:#137D5E"/>
			<stop  offset="0.508" style="stop-color:#3FAC61"/>
			<stop  offset="1" style="stop-color:#0D532D"/>
		</linearGradient>
		<path id="패스_627" class="st23" d="M454.33,531.18c0-0.33-0.04-0.66-0.12-0.98c-0.32-1.38-1.55-2.35-2.96-2.35
			c-2.05,0-3.56,1.78-3.56,4.72c0,2.45,1.25,4.45,3.52,4.45c1.36,0,2.56-0.89,2.96-2.19c0.1-0.43,0.15-0.87,0.16-1.31L454.33,531.18
			z M458.1,525.4c-0.06,0.98-0.12,2.17-0.12,4.15v8.18c0,3.03-0.62,5.2-2.13,6.56c-1.58,1.24-3.57,1.86-5.58,1.75
			c-1.75,0.05-3.49-0.35-5.04-1.16l0.8-2.76c1.29,0.72,2.75,1.1,4.23,1.1c2.11,0.19,3.97-1.36,4.17-3.47
			c0.03-0.3,0.02-0.6-0.02-0.89v-1.26h-0.05c-0.94,1.39-2.54,2.2-4.21,2.14c-3.59,0-6.14-2.96-6.14-7.05c0-4.76,3.08-7.63,6.55-7.63
			c1.71-0.09,3.32,0.78,4.18,2.26h0.06l0.15-1.94L458.1,525.4z"/>
		
			<linearGradient id="패스_628_1_" gradientUnits="userSpaceOnUse" x1="-209.2959" y1="928.7194" x2="-209.9564" y2="939.8685" gradientTransform="matrix(77.9496 0 0 -123.9384 16784.582 115759.5469)">
			<stop  offset="0" style="stop-color:#137D5E"/>
			<stop  offset="0.508" style="stop-color:#7CBE3A"/>
			<stop  offset="1" style="stop-color:#0D532D"/>
		</linearGradient>
		<path id="패스_628" class="st24" d="M499.57,484.63c-2.97-0.01-5.55-2.04-6.26-4.92l-8.56-34.93c-0.84-3.47,1.28-6.96,4.75-7.81
			c0.92-0.22,1.87-0.24,2.79-0.06l16.91,3.38l-40.76-70.55c-1.78-3.09-0.72-7.05,2.37-8.83c1.06-0.61,2.28-0.91,3.51-0.86l9.11,0.42
			l-57.01-77.13l-23.97,29.64c-2.31,2.72-6.39,3.04-9.1,0.73c-2.62-2.23-3.03-6.12-0.94-8.85l29.22-36.14
			c1.25-1.56,3.16-2.45,5.16-2.4c1.99,0.04,3.86,1.01,5.04,2.61l70.04,94.76c2.12,2.87,1.52,6.91-1.35,9.03
			c-1.19,0.88-2.65,1.33-4.13,1.26l-10.88-0.51l41.99,72.7c1.78,3.09,0.72,7.04-2.37,8.83c-1.36,0.78-2.95,1.04-4.49,0.74
			l-20.95-4.2l6.14,25.06c0.85,3.46-1.27,6.96-4.73,7.81c0,0-0.01,0-0.01,0C500.61,484.56,500.1,484.62,499.57,484.63"/>
		
			<linearGradient id="패스_629_1_" gradientUnits="userSpaceOnUse" x1="-208.4874" y1="926.494" x2="-209.1479" y2="937.6431" gradientTransform="matrix(52.5044 0 0 -62.7776 11332.0762 58646.7109)">
			<stop  offset="0" style="stop-color:#137D5E"/>
			<stop  offset="0.508" style="stop-color:#7CBE3A"/>
			<stop  offset="1" style="stop-color:#0D532D"/>
		</linearGradient>
		<path id="패스_629" class="st25" d="M349.25,397.04c-0.61,0-1.22-0.09-1.81-0.26c-3.42-1-5.39-4.59-4.39-8.02l2.32-7.95
			l-4.08,0.82c-3.49,0.7-6.9-1.57-7.6-5.06c-0.31-1.55-0.04-3.16,0.76-4.53l16.85-28.81h-0.86c-3.57,0-6.46-2.89-6.46-6.46
			c0-1.42,0.47-2.81,1.34-3.93L379,288.99c2.17-2.83,6.22-3.36,9.05-1.19c0.48,0.37,0.9,0.8,1.26,1.28l32.95,44.58
			c2.12,2.87,1.51,6.92-1.36,9.04c-0.84,0.62-1.83,1.03-2.86,1.19l7.05,11.83c1.88,3.03,0.94,7.01-2.09,8.88
			c-3.03,1.88-7.01,0.94-8.88-2.09c-0.04-0.06-0.07-0.12-0.11-0.19l-13.13-22.02c-1.83-3.05-0.83-7.01,2.22-8.84
			c0.36-0.21,0.73-0.39,1.12-0.53l-20.19-27.3l-20.53,26.73c3.53,0.52,5.97,3.8,5.46,7.33c-0.12,0.82-0.4,1.61-0.82,2.33
			l-15.29,26.12l0.44-0.09c3.5-0.69,6.9,1.58,7.6,5.09c0.2,1.01,0.16,2.06-0.13,3.06l-5.31,18.18
			C354.64,395.14,352.12,397.04,349.25,397.04"/>
		
			<linearGradient id="패스_630_1_" gradientUnits="userSpaceOnUse" x1="-210.3545" y1="925.0516" x2="-211.015" y2="936.2007" gradientTransform="matrix(45.667 0 0 -55.579 9729.7607 51987.4648)">
			<stop  offset="0" style="stop-color:#137D5E"/>
			<stop  offset="0.508" style="stop-color:#3FAC61"/>
			<stop  offset="1" style="stop-color:#0D532D"/>
		</linearGradient>
		<path id="패스_630" class="st26" d="M145.44,399.54h11.47v97.89h-11.47V399.54z M91.35,401.55h30.39v10.52H91.35L91.35,401.55z
			 M131.42,430.19h-18.7v2.57c0.05,7.65,2.67,15.06,7.44,21.03c4.23,5.59,9.69,10.14,15.94,13.31l-7.12,9.17
			c-4.88-2.71-9.32-6.14-13.17-10.18c-3.82-3.85-6.92-8.36-9.14-13.31c-2.22,5.37-5.42,10.27-9.45,14.44
			c-3.86,4.3-8.38,7.97-13.39,10.85l-7.33-8.84c6.38-3.56,11.9-8.5,16.15-14.44c4.36-6.15,7.75-13.53,7.75-21.47v-3.14H81.36V419.9
			h50.05L131.42,430.19z"/>
		
			<linearGradient id="패스_631_1_" gradientUnits="userSpaceOnUse" x1="-210.45" y1="925.2389" x2="-211.1104" y2="936.388" gradientTransform="matrix(47.878 0 0 -57.312 10199.3516 53605.1953)">
			<stop  offset="0" style="stop-color:#137D5E"/>
			<stop  offset="0.508" style="stop-color:#3FAC61"/>
			<stop  offset="1" style="stop-color:#0D532D"/>
		</linearGradient>
		<path id="패스_631" class="st27" d="M92.88,410.55h27.34v-7.47H92.88V410.55z M123.27,413.6H89.83v-13.56h33.44V413.6z
			 M78.81,469.67l5.36,6.47c4.42-2.74,8.43-6.09,11.91-9.95c3.91-4.02,7.02-8.75,9.16-13.93l1.38-3.66l1.46,3.63
			c2.15,4.77,5.14,9.12,8.83,12.83c3.46,3.6,7.38,6.72,11.66,9.28l5.23-6.74c-5.82-3.18-10.89-7.58-14.87-12.89
			c-4.96-6.24-7.69-13.96-7.74-21.93v-4.1h18.71v-7.24H82.89v7.24h19.02v4.65c0,7.31-2.7,14.84-8.04,22.37
			C89.83,461.31,84.71,466.06,78.81,469.67 M83.43,480.01l-9.31-11.23l1.65-0.88c6.18-3.46,11.52-8.23,15.64-13.99
			c4.95-6.98,7.46-13.91,7.46-20.58v-1.6H79.84v-13.34h53.1v13.34h-18.71v1.06c0.06,7.31,2.57,14.39,7.13,20.1
			c4.09,5.42,9.37,9.84,15.44,12.89l1.61,0.86l-9.01,11.6l-1.13-0.58c-5.03-2.77-9.6-6.29-13.55-10.46
			c-3.12-3.22-5.81-6.82-8.01-10.72c-2.23,4.31-5.05,8.28-8.39,11.8c-3.98,4.43-8.63,8.2-13.8,11.16L83.43,480.01z M146.97,495.91
			h8.43v-94.85h-8.43V495.91z M158.44,498.96h-14.52V398.02h14.52V498.96z"/>
		
			<linearGradient id="패스_632_1_" gradientUnits="userSpaceOnUse" x1="-209.7813" y1="925.0179" x2="-210.4418" y2="936.1671" gradientTransform="matrix(50.616 0 0 -55.4626 10834.3369 51880.1484)">
			<stop  offset="0" style="stop-color:#137D5E"/>
			<stop  offset="0.508" style="stop-color:#3FAC61"/>
			<stop  offset="1" style="stop-color:#0D532D"/>
		</linearGradient>
		<path id="패스_632" class="st28" d="M198.9,416.66c-5.44,4.77-5.98,13.05-1.21,18.49c0.38,0.43,0.78,0.83,1.21,1.21
			c6.76,5.21,16.19,5.21,22.95,0c5.44-4.43,6.25-12.44,1.82-17.87c-0.54-0.67-1.15-1.28-1.82-1.82
			C215.14,411.29,205.61,411.29,198.9,416.66 M230.25,443.95c-5.53,4.7-12.61,7.17-19.86,6.94c-7.2,0.27-14.23-2.21-19.67-6.94
			c-5.05-4.38-7.92-10.76-7.86-17.45c-0.06-6.73,2.76-13.16,7.75-17.68c5.55-4.58,12.58-6.96,19.77-6.71
			c7.19-0.18,14.21,2.25,19.76,6.83c5.12,4.38,8.04,10.81,7.97,17.56C238.08,433.17,235.22,439.51,230.25,443.95 M232.48,499.78
			h-11.37v-32.11h-21.89v32.11h-11.37v-32.11h-22.53V457.6h89.15v10.07h-22L232.48,499.78z"/>
		
			<linearGradient id="패스_633_1_" gradientUnits="userSpaceOnUse" x1="-209.8669" y1="925.206" x2="-210.5274" y2="936.3551" gradientTransform="matrix(52.349 0 0 -57.1924 11202.5957 53495.0117)">
			<stop  offset="0" style="stop-color:#137D5E"/>
			<stop  offset="0.508" style="stop-color:#3FAC61"/>
			<stop  offset="1" style="stop-color:#0D532D"/>
		</linearGradient>
		<path id="패스_633" class="st29" d="M210.38,414.16c-3.83-0.14-7.57,1.16-10.48,3.65c-4.8,4.21-5.28,11.52-1.06,16.32
			c0.34,0.39,0.7,0.75,1.09,1.08c6.19,4.72,14.78,4.7,20.96-0.04c4.79-3.9,5.51-10.95,1.61-15.74c-0.48-0.59-1.02-1.13-1.61-1.61
			C217.97,415.33,214.22,414.02,210.38,414.16 M210.39,441.79c-4.53,0.12-8.95-1.39-12.46-4.26c-6.08-5.31-6.71-14.54-1.4-20.63
			c0.42-0.48,0.88-0.94,1.36-1.36c7.28-5.89,17.68-5.89,24.97-0.02c6.07,4.98,6.96,13.95,1.97,20.02c-0.6,0.73-1.27,1.4-2,1.99
			C219.33,440.4,214.91,441.91,210.39,441.79 M210.39,403.65c-6.82-0.25-13.49,2.01-18.77,6.34c-4.65,4.23-7.28,10.24-7.23,16.52
			c-0.05,6.25,2.64,12.21,7.35,16.32c5.16,4.46,11.83,6.8,18.65,6.54c6.88,0.24,13.6-2.1,18.85-6.54
			c4.65-4.15,7.33-10.08,7.36-16.32c0.08-6.31-2.65-12.32-7.45-16.41C223.87,405.76,217.21,403.47,210.39,403.65 M210.38,452.44
			c-7.58,0.26-14.98-2.37-20.7-7.36c-5.36-4.67-8.41-11.45-8.34-18.56c-0.05-7.16,2.95-13.99,8.25-18.8
			c5.83-4.83,13.23-7.36,20.8-7.11c7.56-0.18,14.94,2.37,20.76,7.2c5.47,4.66,8.58,11.52,8.49,18.71
			c-0.02,7.09-3.06,13.84-8.35,18.56C225.48,450.06,218.02,452.69,210.38,452.44 M222.63,498.27h8.32v-32.12h22v-7.01h-86.1v7.02
			h22.53v32.1h8.32v-32.11h24.94L222.63,498.27z M234,501.33h-14.42v-32.11h-18.84v32.11h-14.42v-32.11H163.8v-13.13H256v13.13h-22
			L234,501.33z"/>
		
			<linearGradient id="패스_634_1_" gradientUnits="userSpaceOnUse" x1="-208.6418" y1="925.0518" x2="-209.3023" y2="936.2009" gradientTransform="matrix(45.551 0 0 -55.579 9807.1348 51987.4648)">
			<stop  offset="0" style="stop-color:#137D5E"/>
			<stop  offset="0.508" style="stop-color:#3FAC61"/>
			<stop  offset="1" style="stop-color:#0D532D"/>
		</linearGradient>
		<path id="패스_634" class="st30" d="M325.05,399.54h11.47v97.89h-11.47V399.54z M287.11,442.39c3.58,0.05,7.01-1.42,9.45-4.03
			c2.68-2.78,4.1-6.54,3.93-10.39c0.15-3.79-1.28-7.48-3.93-10.19c-2.4-2.68-5.85-4.19-9.45-4.14c-7.65,0-13.39,6.16-13.39,14.32
			C273.73,436.46,279.47,442.4,287.11,442.39 M269.47,410.52c9.84-9.39,25.33-9.39,35.17,0c9.67,9.32,9.95,24.72,0.63,34.39
			c-0.21,0.21-0.42,0.43-0.63,0.63c-9.9,9.24-25.27,9.24-35.17,0c-9.67-9.52-9.79-25.08-0.27-34.75
			C269.29,410.7,269.38,410.61,269.47,410.52 M256.29,464.88c9.35,0,22.21-0.55,33.79-1.11c11.58-0.79,23.05-1.56,29.75-2.57
			l1.07,9.95c-7.12,1.01-18.49,1.9-29.97,2.69c-11.47,0.79-24.23,1.34-33.9,1.34L256.29,464.88z"/>
		
			<linearGradient id="패스_635_1_" gradientUnits="userSpaceOnUse" x1="-208.7819" y1="925.2377" x2="-209.4424" y2="936.3868" gradientTransform="matrix(47.349 0 0 -57.298 10189.1904 53592.1406)">
			<stop  offset="0" style="stop-color:#137D5E"/>
			<stop  offset="0.508" style="stop-color:#3FAC61"/>
			<stop  offset="1" style="stop-color:#0D532D"/>
		</linearGradient>
		<path id="패스_635" class="st31" d="M287.11,415.16c-6.77,0-11.87,5.51-11.87,12.8c0,7.48,4.99,12.9,11.87,12.9
			c3.17,0.04,6.2-1.26,8.37-3.56c2.4-2.5,3.66-5.88,3.49-9.33c0.15-3.39-1.12-6.69-3.49-9.12
			C293.37,416.45,290.31,415.1,287.11,415.16 M287.11,443.92c-8.64,0-14.92-6.72-14.92-15.96c0-9.03,6.41-15.85,14.92-15.85
			c4.02-0.06,7.88,1.62,10.57,4.61c2.94,2.98,4.51,7.05,4.35,11.23c0.16,4.26-1.42,8.41-4.37,11.48
			C294.93,442.34,291.11,443.96,287.11,443.92 M287.12,404.97c-6.18-0.06-12.13,2.31-16.57,6.61c-9.07,8.93-9.18,23.52-0.25,32.59
			c0.08,0.08,0.16,0.16,0.23,0.24c9.31,8.69,23.76,8.69,33.07,0c9.06-8.74,9.32-23.18,0.57-32.24c-0.19-0.2-0.38-0.39-0.57-0.57
			C299.2,407.31,293.27,404.92,287.12,404.97 M287.12,453.98c-6.95,0.05-13.65-2.59-18.69-7.37c-10.28-10.08-10.43-26.59-0.35-36.86
			c0.12-0.12,0.23-0.23,0.35-0.35c10.43-9.97,26.86-9.97,37.29,0c10.27,9.92,10.55,26.29,0.63,36.56c-0.21,0.22-0.43,0.43-0.65,0.65
			C300.7,451.37,294.03,454.01,287.12,453.98 M257.94,466.38l0.53,7.24c8.88-0.04,20.56-0.53,32.37-1.33
			c8.53-0.59,20.51-1.46,28.39-2.48l-0.73-6.92c-6.96,0.92-17.8,1.66-28.31,2.37C279.37,465.79,267.21,466.32,257.94,466.38
			 M257.05,476.68h-1.41l-0.97-13.34h1.64c9.37,0,22.3-0.57,33.72-1.11c11.25-0.77,22.91-1.56,29.6-2.57l1.58-0.23l1.38,13
			l-1.46,0.21c-7.91,1.12-20.95,2.07-30.07,2.69C278.56,476.18,266.15,476.68,257.05,476.68 M326.59,495.89h8.43v-94.82h-8.43
			V495.89z M338.07,498.93h-14.52V398.02h14.52V498.93z"/>
		
			<linearGradient id="패스_636_1_" gradientUnits="userSpaceOnUse" x1="-209.7408" y1="924.4984" x2="-210.4013" y2="935.6475" gradientTransform="matrix(37.52 0 0 -44.531 8007.292 41616.6992)">
			<stop  offset="0" style="stop-color:#137D5E"/>
			<stop  offset="0.508" style="stop-color:#3FAC61"/>
			<stop  offset="1" style="stop-color:#0D532D"/>
		</linearGradient>
		<path id="패스_636" class="st32" d="M165.19,308.08v78.43h-9.2v-45.89h-16.78v-8.43h16.78v-24.12H165.19z M141.52,367.15
			c-4.12-2.7-7.8-6.03-10.9-9.86c-3.18-3.57-5.67-7.71-7.33-12.19c-3.71,9.36-10.22,17.35-18.65,22.86l-5.54-7.35
			c5.48-3.59,10.07-8.37,13.46-13.98c3.82-6.43,5.85-13.77,5.88-21.25v-12.99h9.45v12.82c-0.03,7.22,1.89,14.31,5.54,20.53
			c3.34,5.6,7.95,10.33,13.46,13.81L141.52,367.15z"/>
		
			<linearGradient id="패스_637_1_" gradientUnits="userSpaceOnUse" x1="-209.8835" y1="924.7513" x2="-210.544" y2="935.9005" gradientTransform="matrix(39.642 0 0 -46.267 8458.0225 43237.2813)">
			<stop  offset="0" style="stop-color:#137D5E"/>
			<stop  offset="0.508" style="stop-color:#3FAC61"/>
			<stop  offset="1" style="stop-color:#0D532D"/>
		</linearGradient>
		<path id="패스_637" class="st33" d="M101.29,360.96l3.7,4.91c7.59-5.3,13.46-12.71,16.87-21.31l1.49-4.07l1.39,4.1
			c1.6,4.3,3.98,8.26,7.03,11.69c2.7,3.34,5.85,6.28,9.37,8.75l3.59-5.09c-5.13-3.51-9.43-8.1-12.61-13.43
			c-3.8-6.46-5.78-13.82-5.75-21.31v-11.3h-6.41v11.49c-0.02,7.75-2.12,15.35-6.08,22.02c-3.22,5.34-7.51,9.97-12.59,13.58
			 M104.28,370.02l-7.38-9.8l1.38-0.88c5.29-3.46,9.72-8.07,12.98-13.49c3.68-6.19,5.63-13.25,5.66-20.45v-14.52h12.51v14.34
			c-0.03,6.94,1.81,13.77,5.33,19.75c3.2,5.39,7.64,9.94,12.94,13.28l1.37,0.86l-7.15,10.14l-1.23-0.8
			c-4.25-2.8-8.05-6.23-11.25-10.19c-2.43-2.79-4.5-5.88-6.15-9.2c-4.04,8.19-10.19,15.16-17.81,20.19L104.28,370.02z
			 M157.52,384.99h6.15v-75.38h-6.15v24.11h-16.78v5.38h16.78V384.99z M166.72,388.04h-12.25v-45.91h-16.78v-11.47h16.78v-24.12
			h12.25V388.04z"/>
		
			<linearGradient id="패스_638_1_" gradientUnits="userSpaceOnUse" x1="-208.7815" y1="924.4257" x2="-209.442" y2="935.5748" gradientTransform="matrix(36.264 0 0 -44.024 7781.2954 41143.1445)">
			<stop  offset="0" style="stop-color:#137D5E"/>
			<stop  offset="0.508" style="stop-color:#3FAC61"/>
			<stop  offset="1" style="stop-color:#0D532D"/>
		</linearGradient>
		<path id="패스_638" class="st34" d="M226.93,308.08h9.2v77.54h-9.2V308.08z M191.84,384.72v-32.18
			c-6.99,0.45-13.72,0.63-18.82,0.72l-0.76-8.43c6.9,0,16.69-0.35,25.98-1.07c1.7-0.09,3.4-0.18,5.11-0.36
			c1.36-7.46,2.16-15.01,2.38-22.58h-26.4v-8.25h35.69c-0.03,10.09-0.89,20.17-2.56,30.12c3.92-0.44,7.5-0.89,10.39-1.34l0.94,8.34
			c-6.13,0.89-14.31,1.7-22.66,2.25v32.8L191.84,384.72z"/>
		
			<linearGradient id="패스_639_1_" gradientUnits="userSpaceOnUse" x1="-208.9507" y1="924.6835" x2="-209.6111" y2="935.8326" gradientTransform="matrix(38.076 0 0 -45.754 8166.3037 42758.1367)">
			<stop  offset="0" style="stop-color:#137D5E"/>
			<stop  offset="0.508" style="stop-color:#3FAC61"/>
			<stop  offset="1" style="stop-color:#0D532D"/>
		</linearGradient>
		<path id="패스_639" class="st35" d="M193.37,383.19h6.23v-32.71l1.43-0.09c7.62-0.49,15.2-1.22,21.07-2.03l-0.59-5.29
			c-2.37,0.34-5.3,0.7-8.88,1.12l-2.04,0.23l0.37-2.02c1.58-9.36,2.42-18.83,2.52-28.32h-32.62v5.2h26.47l-0.07,1.59
			c-0.22,7.66-1.03,15.29-2.42,22.82l-0.22,1.1l-1.12,0.12c-1.69,0.18-3.39,0.27-5.07,0.35c-8.07,0.62-17.25,1.02-24.5,1.07
			l0.49,5.36c6.47-0.13,12.15-0.35,17.33-0.68l1.62-0.11L193.37,383.19z M228.46,384.09h6.14V309.6h-6.15L228.46,384.09z
			 M237.66,387.14h-12.24v-36.17l-1.41,0.2c-5.78,0.85-13.49,1.62-21.35,2.16v32.9h-12.33v-32.08c-5.17,0.3-10.84,0.5-17.27,0.62
			l-1.41,0.02l-1.05-11.49h1.67c7.4,0,17.31-0.42,25.86-1.07c1.38-0.08,2.67-0.14,3.95-0.25c1.14-6.5,1.83-13.06,2.07-19.65H177.8
			v-11.29h38.75l-0.02,1.53c-0.04,9.49-0.79,18.97-2.24,28.36c3.41-0.41,6.14-0.77,8.31-1.11l1.57-0.24l1.23,10.92v-43.94h12.24
			L237.66,387.14z"/>
	</g>
	
		<linearGradient id="패스_640_1_" gradientUnits="userSpaceOnUse" x1="-32.4441" y1="1269.6465" x2="-33.1045" y2="1280.7955" gradientTransform="matrix(40.622 0 0 -36.949 1776.1573 47687.6328)">
		<stop  offset="0" style="stop-color:#137D5E"/>
		<stop  offset="0.508" style="stop-color:#3FAC61"/>
		<stop  offset="1" style="stop-color:#0D532D"/>
	</linearGradient>
	<path id="패스_640" class="st36" d="M448.24,691.7h13.71l0.34-24.29h-14.39L448.24,691.7z M482.39,699.77h-23.16v16.58h31.18
		v8.07h-71.55v-8.07h31.09v-16.58H427.8v-8.07h12.09l-0.34-24.29h-9.88v-8.07h50.85v8.07h-9.88l-0.34,24.29h12.09L482.39,699.77z"/>
	
		<linearGradient id="패스_641_1_" gradientUnits="userSpaceOnUse" x1="-32.6042" y1="1270.009" x2="-33.2647" y2="1281.1581" gradientTransform="matrix(42.354 0 0 -38.679 1839.3761 49902.0313)">
		<stop  offset="0" style="stop-color:#137D5E"/>
		<stop  offset="0.508" style="stop-color:#3FAC61"/>
		<stop  offset="1" style="stop-color:#0D532D"/>
	</linearGradient>
	<path id="패스_641" class="st37" d="M449.74,690.18h10.71l0.3-21.24h-11.3L449.74,690.18z M463.45,693.22h-16.72l-0.38-27.34
		h17.49L463.45,693.22z M420.38,722.89h68.49v-5.02H457.7v-19.63h23.16v-5.01h-12.12l0.38-27.34h9.86v-5.03h-47.8v5.03h9.86
		l0.38,27.34h-12.11v5.01h22.14v19.64h-31.09L420.38,722.89z M491.92,725.94h-74.59v-11.12h31.09v-13.53h-22.15v-11.12h12.07
		l-0.3-21.24h-9.9v-11.11h53.9v11.11h-9.9l-0.3,21.24h12.07v11.12h-23.16v13.53h31.18L491.92,725.94z"/>
	<g id="그룹_59" transform="translate(335.985 409.189)">
		
			<linearGradient id="패스_642_1_" gradientUnits="userSpaceOnUse" x1="-368.9131" y1="863.5423" x2="-369.5736" y2="874.6914" gradientTransform="matrix(63.858 0 0 -67.576 23820.2832 58882.5156)">
			<stop  offset="0" style="stop-color:#137D5E"/>
			<stop  offset="0.508" style="stop-color:#3FAC61"/>
			<stop  offset="1" style="stop-color:#0D532D"/>
		</linearGradient>
		<path id="패스_642" class="st38" d="M244.97,422.68h18.35l0.4-18.7h-19.15L244.97,422.68z M238.01,354.14
			c-7.57,4.58-15.72,8.11-24.24,10.51l-7.09-10.64c9.45-2.31,18.39-6.35,26.38-11.91c7.36-5,12.58-12.05,12.58-19.35v-7.17h16.07
			v7.17c0,7.3,5.09,14.35,12.45,19.35c8.01,5.61,17,9.65,26.51,11.91l-7.09,10.64c-8.61-2.3-16.83-5.89-24.37-10.64
			c-6.96-4.23-12.98-9.61-15.53-13.71C250.99,344.4,244.97,349.66,238.01,354.14 M292.23,403.99h-13.53l-0.4,18.7h15.67v11.92
			h-81.14v-11.92h16.87l-0.4-18.7h-14.6V391.8h31.74v-11.01h-49v-11.54h112.47v11.53h-48.88v11.01h31.2L292.23,403.99z"/>
		
			<linearGradient id="패스_643_1_" gradientUnits="userSpaceOnUse" x1="-369.0036" y1="863.6682" x2="-369.6641" y2="874.8173" gradientTransform="matrix(65.584 0 0 -69.3129 24463.1934 60395.0547)">
			<stop  offset="0" style="stop-color:#137D5E"/>
			<stop  offset="0.508" style="stop-color:#3FAC61"/>
			<stop  offset="1" style="stop-color:#0D532D"/>
		</linearGradient>
		<path id="패스_643" class="st39" d="M253.7,337.46l1.27,2.03c2.47,3.98,8.37,9.16,15.03,13.21c7.11,4.49,14.83,7.91,22.92,10.17
			l5.31-7.95c-8.97-2.32-17.43-6.25-24.98-11.61c-8.28-5.62-13.06-13.13-13.06-20.57v-5.65h-13.01v5.65
			c0,7.38-4.83,14.89-13.25,20.61c-7.51,5.3-15.91,9.22-24.8,11.56l5.31,7.96c8-2.35,15.66-5.72,22.79-10.04
			c6.86-4.4,12.68-9.54,15.19-13.37L253.7,337.46z M213.11,366.41l-8.88-13.32l2.05-0.56c9.27-2.23,18.05-6.19,25.86-11.66
			c7.52-5.11,11.98-11.86,11.98-18.13v-8.7h19.11v8.7c0,6.32,4.4,13.08,11.78,18.09c7.85,5.53,16.69,9.5,26.04,11.7l2.07,0.54
			l-8.9,13.33l-1.06-0.29c-8.76-2.34-17.11-5.99-24.79-10.82c-5.57-3.27-10.55-7.46-14.73-12.38c-4.28,4.89-9.28,9.1-14.82,12.51
			c-7.69,4.67-15.98,8.27-24.65,10.7L213.11,366.41z M246.46,421.16h15.36l0.33-15.66h-16.03L246.46,421.16z M264.8,424.21h-21.32
			l-0.47-21.76h22.26L264.8,424.21z M214.35,433.08h78.09v-8.87h-15.7l0.47-21.76h13.48v-9.13h-31.19v-14.06h48.87v-8.49H198.96
			v8.49h49.01v14.06h-31.74v9.13h14.57l0.47,21.76h-16.91L214.35,433.08z M295.5,436.13h-84.19v-14.97h16.84l-0.34-15.66h-14.62
			v-15.22h31.74v-7.97h-49.01v-14.57h115.51v14.57h-48.87v7.97h31.2v15.22H280.2l-0.34,15.66h15.63V436.13z"/>
	</g>
</g>
</svg>
