<?xml version="1.0" encoding="utf-8"?>
<!-- Generator: Adobe Illustrator 23.1.0, SVG Export Plug-In . SVG Version: 6.00 Build 0)  -->
<svg version="1.1" id="레이어_1" xmlns="http://www.w3.org/2000/svg" xmlns:xlink="http://www.w3.org/1999/xlink" x="0px"
	 y="0px" viewBox="0 0 440 422" style="enable-background:new 0 0 440 422;" xml:space="preserve">
<style type="text/css">
	.st0{fill:#FFFFFF;}
</style>
<g id="parking_1_" transform="translate(1 1)">
	<g id="그룹_52" transform="translate(-1 -1)">
		<g id="그룹_51" transform="translate(0)">
			<path id="패스_598" class="st0" d="M314.75,340.2v-74.8c0.2-11.06-8.6-20.2-19.67-20.4c-0.24,0-0.49,0-0.73,0h-3.39
				c-3.09,0.16-5.89-1.8-6.8-4.76l-23.8-82.96v-0.68c-5.5-12.37-17.74-20.35-31.28-20.4H101.23c-13.53,0.05-25.78,8.03-31.28,20.4
				v0.68l-23.8,82.96c-1.23,2.7-3.84,4.53-6.8,4.76h-3.39c-11.06-0.21-20.2,8.59-20.41,19.65c0,0.25,0,0.5,0,0.74v74.8
				c-0.2,11.06,8.6,20.2,19.67,20.4c0.24,0,0.49,0,0.73,0v34c-0.2,11.06,8.6,20.2,19.67,20.4c0.24,0,0.49,0,0.73,0h13.6
				c11.06,0.2,20.2-8.6,20.4-19.67c0-0.24,0-0.49,0-0.73v-34h149.6v34c-0.2,11.06,8.6,20.2,19.67,20.4c0.24,0,0.49,0,0.73,0h13.6
				c11.06,0.2,20.2-8.6,20.4-19.67c0-0.24,0-0.49,0-0.73v-34c11.06,0.2,20.2-8.6,20.4-19.66
				C314.75,340.69,314.75,340.45,314.75,340.2z M76.75,394.6c0.21,3.54-2.48,6.59-6.02,6.8c-0.26,0.02-0.52,0.02-0.77,0h-13.6
				c-3.54,0.21-6.59-2.48-6.8-6.02c-0.02-0.26-0.02-0.52,0-0.77v-34h27.2V394.6z M280.75,394.6c0.21,3.54-2.48,6.59-6.02,6.8
				c-0.26,0.02-0.52,0.02-0.77,0h-13.6c-3.54,0.21-6.59-2.48-6.8-6.02c-0.02-0.26-0.02-0.52,0-0.77v-34h27.2L280.75,394.6
				L280.75,394.6z M301.15,340.2c0.21,3.54-2.48,6.59-6.02,6.8c-0.26,0.02-0.52,0.02-0.77,0H35.95c-3.54,0.21-6.59-2.48-6.8-6.02
				c-0.02-0.26-0.02-0.52,0-0.77v-74.8c-0.21-3.54,2.48-6.59,6.02-6.8c0.26-0.02,0.52-0.02,0.77,0h3.39
				c9.12-0.18,17.08-6.23,19.71-14.96l23.8-82.28c3.41-7.05,10.53-11.53,18.36-11.56h127.86c7.86-0.08,15.04,4.44,18.36,11.56
				l23.8,82.28c2.63,8.73,10.59,14.78,19.71,14.96h3.39c3.54-0.21,6.59,2.48,6.8,6.02c0.02,0.26,0.02,0.52,0,0.77v74.8H301.15z"/>
			<path id="패스_599" class="st0" d="M76.75,272.21c-15.02,0-27.2,12.18-27.2,27.2c0,15.02,12.18,27.2,27.2,27.2
				s27.2-12.18,27.2-27.2C103.91,284.4,91.76,272.25,76.75,272.21z M76.75,313.01c-7.51,0-13.6-6.09-13.6-13.6
				c0-7.51,6.09-13.6,13.6-13.6s13.6,6.09,13.6,13.6l0,0C90.33,306.91,84.26,312.98,76.75,313.01z"/>
			<path id="패스_600" class="st0" d="M253.55,272.21c-15.02,0-27.2,12.18-27.2,27.2c0,15.02,12.18,27.2,27.2,27.2
				c15.02,0,27.2-12.18,27.2-27.2C280.7,284.4,268.55,272.25,253.55,272.21z M253.55,313.01c-7.51,0-13.6-6.09-13.6-13.6
				c0-7.51,6.09-13.6,13.6-13.6c7.51,0,13.6,6.09,13.6,13.6v0C267.13,306.91,261.05,312.98,253.55,313.01z"/>
			<path id="패스_601" class="st0" d="M178.75,306.2h-27.2c-3.76-0.01-6.81,3.03-6.82,6.78c-0.01,3.76,3.03,6.81,6.78,6.82
				c0.01,0,0.02,0,0.04,0h27.2c3.76-0.01,6.79-3.06,6.78-6.82C185.52,309.24,182.49,306.21,178.75,306.2z"/>
			<path id="패스_602" class="st0" d="M192.35,279.01h-54.39c-3.76-0.01-6.81,3.03-6.82,6.78c-0.01,3.76,3.03,6.81,6.78,6.82
				c0.01,0,0.02,0,0.04,0h54.4c3.76,0.01,6.81-3.03,6.82-6.78c0.01-3.76-3.03-6.81-6.78-6.82c-0.01,0-0.02,0-0.04,0H192.35z"/>
			<path id="패스_603" class="st0" d="M99.88,245.01h131.24c4.26-0.09,8.25-2.09,10.88-5.44c2.68-3.49,3.44-8.08,2.04-12.24
				l-16.32-54.4c-1.68-5.72-6.97-9.61-12.93-9.52h-98.58c-5.98-0.17-11.31,3.76-12.93,9.52l-16.32,54.4
				c-1.4,4.17-0.64,8.76,2.04,12.24C91.61,242.92,95.61,244.92,99.88,245.01z M116.2,177.01h98.6l16.32,54.4H99.88L116.2,177.01z"/>
			<path id="패스_604" class="st0" d="M416.74,7.01h-115.6c-3.54-0.21-6.59,2.48-6.8,6.02c-0.02,0.26-0.02,0.52,0,0.77v115.6
				c-0.21,3.54,2.48,6.59,6.02,6.8c0.26,0.02,0.52,0.02,0.77,0h47.61v210.78h-13.61c-3.54-0.21-6.59,2.48-6.8,6.02
				c-0.02,0.26-0.02,0.52,0,0.77v20.4h-13.6c-3.54-0.21-6.59,2.48-6.8,6.02c-0.02,0.26-0.02,0.52,0,0.77v27.2
				c-0.21,3.54,2.48,6.59,6.02,6.8c0.26,0.02,0.52,0.02,0.77,0h81.61c3.54,0.21,6.59-2.48,6.8-6.02c0.02-0.26,0.02-0.52,0-0.77
				v-27.2c0.21-3.54-2.48-6.59-6.02-6.8c-0.26-0.02-0.52-0.02-0.77,0h-13.6v-20.4c0.21-3.54-2.48-6.59-6.02-6.8
				c-0.26-0.02-0.52-0.02-0.77,0h-13.6V136.21h54.4c3.54,0.21,6.59-2.48,6.8-6.02c0.02-0.26,0.02-0.52,0-0.77V13.81
				c0.21-3.54-2.48-6.59-6.02-6.8C417.27,7,417.01,7,416.74,7.01z M389.55,401.4h-68v-13.6h68L389.55,401.4L389.55,401.4z
				 M369.15,374.2h-27.2v-13.6h27.2V374.2z M409.95,122.61h-102v-102h102L409.95,122.61z"/>
			<path id="패스_605" class="st0" d="M348.75,109.01c3.54,0.21,6.59-2.48,6.8-6.02c0.02-0.26,0.02-0.52,0-0.77v-13.6h6.8
				c15.02,0,27.2-12.18,27.2-27.2s-12.18-27.2-27.2-27.2h-13.6c-3.54-0.21-6.59,2.48-6.8,6.02c-0.02,0.26-0.02,0.52,0,0.77v61.2
				c-0.21,3.54,2.48,6.59,6.02,6.8C348.23,109.02,348.49,109.02,348.75,109.01z M375.94,61.41c-0.02,7.5-6.1,13.58-13.6,13.6h-6.8
				v-27.2h6.8C369.85,47.83,375.92,53.91,375.94,61.41L375.94,61.41z"/>
		</g>
	</g>
</g>
</svg>
