<?xml version="1.0" encoding="utf-8"?>
<!-- Generator: Adobe Illustrator 23.1.0, SVG Export Plug-In . SVG Version: 6.00 Build 0)  -->
<svg version="1.1" id="레이어_1" xmlns="http://www.w3.org/2000/svg" xmlns:xlink="http://www.w3.org/1999/xlink" x="0px"
	 y="0px" viewBox="0 0 440 422" style="enable-background:new 0 0 440 422;" xml:space="preserve">
<style type="text/css">
	.st0{fill:#FFFFFF;}
</style>
<g id="그룹_92" transform="translate(-714.323 -691)">
	<g id="그룹_2" transform="translate(714.323 691)">
		<path id="패스_14" class="st0" d="M206.41,11.22H38.15C21.91,11.24,8.75,24.4,8.73,40.64v341.93
			c0.02,16.24,13.18,29.41,29.42,29.43h168.26c16.24-0.02,29.41-13.18,29.43-29.42V40.64C235.82,24.4,222.66,11.24,206.41,11.22z
			 M22.09,64.65h200.39v253.83H22.09V64.65z M38.15,24.58h168.26c8.87,0.01,16.06,7.19,16.07,16.06v10.65H22.09V40.64
			C22.1,31.77,29.28,24.59,38.15,24.58z M206.41,398.64H38.15c-8.87-0.01-16.05-7.2-16.06-16.06v-50.73h200.39v50.73
			C222.47,391.45,215.28,398.63,206.41,398.64z"/>
		<path id="패스_15" class="st0" d="M122.28,338.52c-14.76,0-26.72,11.96-26.72,26.72c0,14.76,11.96,26.72,26.72,26.72
			S149,380,149,365.24C148.99,350.49,137.03,338.54,122.28,338.52z M122.28,378.6c-7.38,0-13.36-5.98-13.36-13.36
			s5.98-13.36,13.36-13.36c7.38,0,13.36,5.98,13.36,13.36l0,0C135.64,372.62,129.66,378.59,122.28,378.6z"/>
		<path id="패스_16" class="st0" d="M95.56,44.61h26.72c3.69,0,6.68-2.99,6.68-6.68s-2.99-6.68-6.68-6.68l0,0H95.56
			c-3.69,0-6.68,2.99-6.68,6.68S91.87,44.61,95.56,44.61z"/>
		<path id="패스_17" class="st0" d="M142.32,44.61H149c3.69,0,6.68-2.99,6.68-6.68s-2.99-6.68-6.68-6.68h-6.68
			c-3.69,0-6.68,2.99-6.68,6.68S138.63,44.61,142.32,44.61z"/>
	</g>
	<path id="messenger" class="st0" d="M1064.11,702.62c-45.41,0.01-82.21,36.82-82.21,82.23c0,14.35,3.76,28.45,10.9,40.9
		l-10.6,32.89c-1.1,3.37,0.74,6.98,4.1,8.08c1.29,0.42,2.69,0.42,3.98,0l32.89-10.59c39.38,22.6,89.63,8.99,112.22-30.39
		c22.6-39.38,8.99-89.63-30.39-112.22C1092.57,706.38,1078.46,702.62,1064.11,702.62z M1064.11,854.19
		c-12.99,0.01-25.72-3.63-36.73-10.51c-1.6-0.99-3.56-1.23-5.36-0.66l-23.74,7.63l7.65-23.74c0.58-1.8,0.34-3.77-0.67-5.38
		c-20.27-32.51-10.36-75.29,22.15-95.57c32.51-20.27,75.29-10.36,95.57,22.15s10.36,75.29-22.15,95.57
		c-11.01,6.87-23.73,10.51-36.71,10.51V854.19z M1072.14,784.83c0,4.43-3.59,8.03-8.03,8.03s-8.03-3.59-8.03-8.03
		s3.59-8.03,8.03-8.03l0,0C1068.54,776.8,1072.14,780.39,1072.14,784.83C1072.14,784.83,1072.14,784.83,1072.14,784.83
		L1072.14,784.83z M1104.25,784.83c0,4.43-3.59,8.03-8.03,8.03c-4.43,0-8.03-3.59-8.03-8.03s3.59-8.03,8.03-8.03l0,0
		C1100.66,776.8,1104.25,780.4,1104.25,784.83z M1040.02,784.83c0,4.43-3.59,8.03-8.03,8.03c-4.43,0-8.03-3.59-8.03-8.03
		s3.59-8.03,8.03-8.03l0,0C1036.43,776.8,1040.02,780.39,1040.02,784.83C1040.03,784.83,1040.03,784.83,1040.02,784.83
		L1040.02,784.83z"/>
</g>
</svg>
