<?xml version="1.0" encoding="utf-8"?>
<!-- Generator: Adobe Illustrator 23.1.0, SVG Export Plug-In . SVG Version: 6.00 Build 0)  -->
<svg version="1.1" id="레이어_1" xmlns="http://www.w3.org/2000/svg" xmlns:xlink="http://www.w3.org/1999/xlink" x="0px"
	 y="0px" viewBox="0 0 440 422" style="enable-background:new 0 0 440 422;" xml:space="preserve">
<style type="text/css">
	.st0{fill:#FFFFFF;}
</style>
<path id="패스_3" class="st0" d="M302.79,10H132.34c-16.45,0.02-29.79,13.35-29.81,29.81v346.38
	c0.02,16.45,13.35,29.79,29.81,29.81h170.45c16.45-0.02,29.79-13.35,29.81-29.81V39.81C332.57,23.35,319.24,10.02,302.79,10z
	 M116.06,64.13h203v257.13h-203V64.13z M132.34,23.53h170.45c8.99,0.01,16.27,7.29,16.28,16.27V50.6h-203V39.81
	C116.07,30.82,123.35,23.54,132.34,23.53z M302.79,402.47H132.34c-8.98-0.01-16.26-7.29-16.27-16.27V334.8h203v51.39
	C319.05,395.18,311.77,402.46,302.79,402.47z"/>
<path id="패스_4" class="st0" d="M217.56,341.57c-14.95,0-27.07,12.12-27.07,27.07s12.12,27.07,27.07,27.07
	s27.07-12.12,27.07-27.07C244.62,353.69,232.51,341.58,217.56,341.57z M217.56,382.17c-7.47,0-13.53-6.06-13.53-13.53
	c0-7.47,6.06-13.53,13.53-13.53s13.53,6.06,13.53,13.53l0,0C231.09,376.1,225.03,382.16,217.56,382.17z"/>
<path id="패스_5" class="st0" d="M190.49,43.83h27.07c3.74,0,6.77-3.03,6.77-6.77s-3.03-6.77-6.77-6.77l0,0h-27.07
	c-3.74,0-6.77,3.03-6.77,6.77S186.76,43.83,190.49,43.83z"/>
<path id="패스_6" class="st0" d="M237.86,43.83h6.77c3.74,0,6.77-3.03,6.77-6.77s-3.03-6.77-6.77-6.77h-6.77
	c-3.74,0-6.77,3.03-6.77,6.77S234.12,43.83,237.86,43.83z"/>
<path id="패스_7" class="st0" d="M397.64,40.91c-2.68-2.61-6.96-2.55-9.57,0.13c-2.55,2.63-2.55,6.81,0,9.43
	c25.27,25.34,25.27,66.36,0,91.7c-2.68,2.61-2.74,6.89-0.13,9.57s6.89,2.74,9.57,0.13c0.04-0.04,0.09-0.09,0.13-0.13
	C428.19,121.12,428.19,71.54,397.64,40.91z"/>
<path id="패스_8" class="st0" d="M369.14,56.32c-2.61-2.68-6.89-2.74-9.57-0.13c-2.68,2.61-2.74,6.89-0.13,9.57
	c0.04,0.04,0.09,0.09,0.13,0.13c17.3,17.35,17.3,45.42,0,62.77c-2.68,2.61-2.74,6.89-0.13,9.57c2.61,2.68,6.89,2.74,9.57,0.13
	c0.04-0.04,0.09-0.09,0.13-0.13C391.74,115.59,391.74,78.94,369.14,56.32L369.14,56.32z"/>
<path id="패스_9" class="st0" d="M47.06,50.48c2.64-2.64,2.64-6.93,0-9.57c-2.64-2.64-6.93-2.64-9.57,0
	c-30.56,30.63-30.56,80.21,0,110.84c2.68,2.61,6.96,2.55,9.57-0.13c2.55-2.63,2.55-6.81,0-9.43
	C21.77,116.85,21.77,75.82,47.06,50.48z"/>
<path id="패스_10" class="st0" d="M75.55,54.45c-2.64-2.64-6.92-2.65-9.56-0.01c0,0-0.01,0.01-0.01,0.01
	c-22.59,22.63-22.59,59.28,0,81.91c2.68,2.61,6.96,2.55,9.57-0.13c2.55-2.63,2.55-6.81,0-9.43c-17.3-17.35-17.3-45.42,0-62.77
	C78.19,61.38,78.19,57.09,75.55,54.45z"/>
</svg>
