<?xml version="1.0" encoding="utf-8"?>
<!-- Generator: Adobe Illustrator 23.1.0, SVG Export Plug-In . SVG Version: 6.00 Build 0)  -->
<svg version="1.1" id="레이어_1" xmlns="http://www.w3.org/2000/svg" xmlns:xlink="http://www.w3.org/1999/xlink" x="0px"
	 y="0px" viewBox="0 0 440 422" style="enable-background:new 0 0 440 422;" xml:space="preserve">
<style type="text/css">
	.st0{fill:#FFFFFF;}
</style>
<g id="Out_line" transform="translate(-16 -16)">
	<path id="패스_644" class="st0" d="M432.69,129.87h-51.42c6.14-12.91,9.62-26.92,10.22-41.2c0-37.92-30.74-68.67-68.67-68.67
		s-68.67,30.74-68.67,68.67c0.6,14.28,4.08,28.29,10.22,41.2H34.43c-3.79,0-6.87,3.07-6.87,6.86v288.4c0,3.79,3.07,6.87,6.87,6.87
		c0,0,0,0,0,0h398.26c3.79,0,6.87-3.07,6.87-6.87l0,0v-288.4C439.56,132.94,436.49,129.86,432.69,129.87L432.69,129.87
		L432.69,129.87z M323.36,352.75c11.38,22.77,27.21,43.03,46.55,59.58l6.92,5.94h-20.91c-26.26-24.03-45.8-54.49-56.71-88.37
		l13.96-1.52c2.83,8.35,6.23,16.49,10.17,24.37L323.36,352.75z M133.94,394.1c-1.35-2.46-4.07-3.85-6.86-3.5
		c-3.3,0.4-6.64,0.21-9.86-0.56c-2.27-0.55-4.66,0.09-6.35,1.7c-8.69,8.29-16.82,17.15-24.32,26.53h-17.3
		c8.82-11.94,18.57-23.16,29.16-33.56c2.2-2.16,2.69-5.51,1.21-8.2c-4.72-8.63-4.46-19.11,0.66-27.5c1.54-2.52,1.3-5.75-0.61-8.01
		C87,325.94,72.47,312.56,56.43,301.18c-4.9-3.46-9.98-6.75-15.13-9.82v-15.83c7.95,4.38,15.66,9.2,23.07,14.44
		c17.66,12.52,33.58,27.33,47.34,44.05c1.61,1.95,4.16,2.86,6.64,2.37c8.71-1.72,17.72,0.87,24.19,6.96c2.24,2.11,5.6,2.47,8.23,0.9
		c11.83-7.07,24.16-13.25,36.9-18.51c0.23,4.84,0.48,9.71,0.75,14.59c-11.74,5.11-23.11,11.05-34,17.78
		c-1.99,1.23-3.21,3.39-3.25,5.73c-0.09,5.59-1.89,11.02-5.16,15.55c-1.55,2.15-1.72,5-0.44,7.33l17.4,31.57h-15.67L133.94,394.1z
		 M131.58,418.27h-27.13c4.27-4.88,8.73-9.62,13.37-14.15c2.05,0.29,4.12,0.43,6.2,0.42L131.58,418.27z M186.45,283.37
		c0.11,9.34,0.32,18.62,0.63,27.77c-13.51,5.31-26.61,11.61-39.19,18.85c-7.03-5.12-15.51-7.87-24.2-7.86
		c-1.3,0-2.59,0.06-3.88,0.18c-13.95-16.45-29.92-31.08-47.52-43.55c-9.88-6.98-20.24-13.26-31-18.79v-74.28l7.69,0.85
		c18.91,2.06,34.67,15.38,39.86,33.68c10.8,37.82,45.37,63.88,84.7,63.85c2.08,0,4.15-0.07,6.21-0.22L186.45,283.37z M186.37,260.38
		c-0.02,3.06-0.02,6.14-0.02,9.22l-7.57,0.54c-35.06,2.5-67.07-19.91-76.72-53.7c-6.71-23.66-27.1-40.89-51.55-43.55l-9.21-1.04
		v-13.81l10.73,1.19c30,3.25,55.02,24.39,63.24,53.43c7.52,25.96,31.26,43.85,58.29,43.94c1.41,0,2.84-0.05,4.26-0.15l8.62-0.62
		c0,1.54-0.03,3.06-0.04,4.55L186.37,260.38z M159.55,383.64c2.75-4.83,4.48-10.17,5.09-15.7c7.98-4.78,16.23-9.12,24.69-13
		c1.45,21.07,3.46,42.3,5.97,63.32h-16.66L159.55,383.64z M202.4,344.32c-0.6-9.69-1.07-19.38-1.43-28.79
		c-0.49-12.95-0.79-26.26-0.86-39.57c-0.03-5.14-0.03-10.35,0-15.48c0.02-3.74,0.07-7.63,0.15-11.91
		c0.56-34.85,2.65-70.12,6.17-104.96h13.81c-3.33,32.49-5.4,65.39-6.12,97.98c-0.14,6.03-0.23,12.24-0.28,18.99
		c-0.03,4.2-0.03,8.04,0,11.73c0.03,11.73,0.24,23.53,0.61,35.03c0.29,9.52,0.69,19.05,1.22,28.33c1.49,27.45,3.95,55.2,7.31,82.6
		h-13.84c-2.97-24.54-5.24-49.39-6.73-73.95L202.4,344.32z M227.92,298.4c-0.17-7.07-0.28-14.21-0.33-21.35
		c5.88-2.41,11.38-5.65,16.34-9.62c8.56-6.84,21.04-5.44,27.88,3.12c2.53,3.16,4.03,7.03,4.29,11.07c0.2,3.08,0.48,6.18,0.82,9.27
		l-13.9,1.51c-11.82,1.29-23.55,3.3-35.13,6.02L227.92,298.4z M290.6,289.38c-0.31-2.9-0.58-5.81-0.77-8.69
		c-1.22-18.5-17.2-32.5-35.69-31.29c-6.86,0.45-13.42,3-18.79,7.3c-2.44,1.96-5.04,3.69-7.78,5.19c0-0.41,0-0.81,0-1.22
		c0.04-5.44,0.1-10.53,0.2-15.45c16.03-12.21,38.05-12.88,54.78-1.67c12.21,8.18,19.95,21.55,20.98,36.22
		c0.18,2.7,0.42,5.41,0.72,8.13L290.6,289.38z M229.71,340.42c12.41-3.32,25.05-5.68,37.81-7.07l17.81-1.95
		c10.02,32.52,27.48,62.25,51,86.84H236.8c-3.2-25.81-5.58-51.94-7.11-77.85L229.71,340.42z M266.04,319.69
		c-12.51,1.37-24.91,3.62-37.11,6.75c-0.23-4.65-0.43-9.32-0.59-14.03c11.91-2.92,24-5.05,36.19-6.38l161.29-17.54v13.84
		L266.04,319.69z M322.85,33.73c30.32,0.04,54.89,24.61,54.93,54.93c0,37-40.43,88.8-54.94,106.19
		c-8.98-10.75-17.38-21.97-25.18-33.6c-19.46-29.19-29.76-54.29-29.76-72.58C267.95,58.34,292.52,33.77,322.85,33.73L322.85,33.73z
		 M317.72,209.99c2.54,2.82,6.88,3.05,9.69,0.51c0.18-0.16,0.35-0.33,0.51-0.51c17.94-20.37,33.6-42.63,46.71-66.39h51.21v131.09
		l-107.94,11.73c-0.28-2.52-0.5-5.04-0.67-7.56c-1.32-18.92-11.3-36.16-27.05-46.73c-18.48-12.39-42.25-13.7-61.98-3.4
		c0.94-28.37,2.9-56.92,5.83-85.11h36.98c13.11,23.76,28.77,46.03,46.71,66.39L317.72,209.99z M192.62,143.6
		c-3.27,32.69-5.27,65.74-5.96,98.45l-9.84,0.69c-22.07,1.49-42.19-12.59-48.37-33.83c-9.73-34.41-39.38-59.46-74.92-63.32
		l-12.24-1.36v-0.64L192.62,143.6z M41.29,307.52c2.42,1.58,4.84,3.19,7.2,4.86c13.84,9.81,26.48,21.21,37.66,33.97
		c-4.57,10.12-4.87,21.65-0.82,31.99c-12.13,12.32-23.16,25.68-32.96,39.92H41.3L41.29,307.52z M397.97,418.26l-19.1-16.37
		c-17.95-15.36-32.65-34.16-43.21-55.3c-3.2-6.41-6.02-13-8.44-19.75l98.61-10.73v102.13L397.97,418.26z"/>
	<path id="패스_645" class="st0" d="M322.83,123c18.96,0,34.33-15.37,34.33-34.33s-15.37-34.33-34.33-34.33
		c-18.96,0-34.33,15.37-34.33,34.33S303.86,123,322.83,123L322.83,123z M322.83,68.07c11.38,0,20.6,9.22,20.6,20.6
		c0,11.38-9.22,20.6-20.6,20.6c-11.38,0-20.6-9.22-20.6-20.6S311.45,68.07,322.83,68.07L322.83,68.07z"/>
	<circle id="타원_14" class="st0" cx="123.32" cy="362.8" r="6.92"/>
</g>
</svg>
