<?xml version="1.0" encoding="utf-8"?>
<!-- Generator: Adobe Illustrator 23.1.0, SVG Export Plug-In . SVG Version: 6.00 Build 0)  -->
<svg version="1.1" id="레이어_1" xmlns="http://www.w3.org/2000/svg" xmlns:xlink="http://www.w3.org/1999/xlink" x="0px"
	 y="0px" viewBox="0 0 351 274" style="enable-background:new 0 0 351 274;" xml:space="preserve">
<style type="text/css">
	.st0{fill:#7D8296;}
	.st1{fill:#454554;}
	.st2{fill:#F0F3FA;}
	.st3{fill:#C5CDDF;}
	.st4{fill:#AEB7CE;}
	.st5{fill:#D3DAEB;}
</style>
<path id="패스_577" class="st0" d="M335.17,4.32H15.69c-6.53,0-11.83,5.3-11.83,11.83c0,0,0,0,0,0v47.33
	c0,6.53,5.3,11.83,11.83,11.83h319.48c6.53,0,11.83-5.3,11.83-11.83V16.15C347,9.62,341.7,4.32,335.17,4.32L335.17,4.32z"/>
<path id="패스_578" class="st1" d="M311.5,45.73H39.35c-3.27,0-5.92-2.65-5.92-5.92l0,0l0,0c0-3.27,2.65-5.92,5.92-5.92l0,0H311.5
	c3.27,0,5.92,2.65,5.92,5.92c0,0,0,0,0,0l0,0C317.42,43.09,314.77,45.73,311.5,45.73z"/>
<path id="패스_579" class="st2" d="M57.1,33.9v221.16c0,2.24,1.26,4.29,3.27,5.29l15.09,7.55c3.33,1.67,7.26,1.67,10.59,0
	l13.07-6.54c3.33-1.67,7.25-1.67,10.59,0l13.07,6.54c3.33,1.67,7.25,1.67,10.59,0l13.07-6.54c3.33-1.67,7.26-1.67,10.59,0
	l13.06,6.53c3.33,1.67,7.26,1.67,10.59,0l13.07-6.54c3.33-1.67,7.25-1.67,10.58,0l13.1,6.55c3.33,1.66,7.25,1.66,10.58,0l13.12-6.55
	c3.33-1.66,7.25-1.66,10.57,0l13.12,6.55c3.33,1.66,7.25,1.66,10.58,0l15.11-7.55c2-1,3.27-3.05,3.27-5.29V33.9H57.1z"/>
<g id="그룹_38" transform="translate(69.31 46.206)">
	<path id="패스_580" class="st3" d="M100.2,58.69h-71c-3.27,0-5.92-2.65-5.92-5.92s2.65-5.92,5.92-5.92h71
		c3.27,0,5.92,2.65,5.92,5.92S103.47,58.69,100.2,58.69z"/>
	<path id="패스_581" class="st3" d="M147.53,29.11H29.2c-3.27,0-5.92-2.65-5.92-5.92s2.65-5.92,5.92-5.92h118.33
		c3.27,0,5.92,2.65,5.92,5.92S150.8,29.11,147.53,29.11z"/>
	<path id="패스_582" class="st3" d="M183.03,58.69h-23.67c-3.27,0-5.92-2.65-5.92-5.92s2.65-5.92,5.92-5.92h23.67
		c3.27,0,5.92,2.65,5.92,5.92S186.3,58.69,183.03,58.69z"/>
	<path id="패스_583" class="st3" d="M183.03,88.27h-23.67c-3.27,0-5.92-2.65-5.92-5.92c0-3.27,2.65-5.92,5.92-5.92h23.67
		c3.27,0,5.92,2.65,5.92,5.92C188.95,85.62,186.3,88.27,183.03,88.27z"/>
</g>
<g id="그룹_39" transform="translate(143.241 69.31)">
	<path id="패스_584" class="st4" d="M61.77,35.59H49.93c-3.27,0-5.92-2.65-5.92-5.92s2.65-5.92,5.92-5.92h11.83
		c3.27,0,5.92,2.65,5.92,5.92S65.03,35.59,61.77,35.59z"/>
	<path id="패스_585" class="st4" d="M61.77,65.17H49.93c-3.27,0-5.92-2.65-5.92-5.92c0-3.27,2.65-5.92,5.92-5.92h11.83
		c3.27,0,5.92,2.65,5.92,5.92C67.68,62.52,65.03,65.17,61.77,65.17z"/>
</g>
<path id="패스_586" class="st3" d="M169.51,134.48h-71c-3.27,0-5.92-2.65-5.92-5.92c0-3.27,2.65-5.92,5.92-5.92h71
	c3.27,0,5.92,2.65,5.92,5.92C175.43,131.83,172.78,134.48,169.51,134.48z"/>
<g id="그룹_40" transform="translate(69.31 115.517)">
	<path id="패스_587" class="st4" d="M41.04,48.54H29.2c-3.27,0-5.92-2.65-5.92-5.92s2.65-5.92,5.92-5.92h11.83
		c3.27,0,5.92,2.65,5.92,5.92S44.3,48.54,41.04,48.54L41.04,48.54z"/>
	<path id="패스_588" class="st4" d="M76.53,48.54H64.7c-3.27,0-5.92-2.65-5.92-5.92s2.65-5.92,5.92-5.92h11.83
		c3.27,0,5.92,2.65,5.92,5.92S79.8,48.54,76.53,48.54L76.53,48.54z"/>
	<path id="패스_589" class="st4" d="M147.53,48.54H135.7c-3.27,0-5.92-2.65-5.92-5.92s2.65-5.92,5.92-5.92h11.83
		c3.27,0,5.92,2.65,5.92,5.92S150.8,48.54,147.53,48.54z"/>
	<path id="패스_590" class="st4" d="M112.03,48.54H100.2c-3.27,0-5.92-2.65-5.92-5.92s2.65-5.92,5.92-5.92h11.83
		c3.27,0,5.92,2.65,5.92,5.92S115.3,48.54,112.03,48.54z"/>
	<path id="패스_591" class="st4" d="M183.03,48.54H171.2c-3.27,0-5.92-2.65-5.92-5.92s2.65-5.92,5.92-5.92h11.83
		c3.27,0,5.92,2.65,5.92,5.92S186.3,48.54,183.03,48.54L183.03,48.54z"/>
</g>
<g id="그룹_41" transform="translate(87.793 138.62)">
	<path id="패스_592" class="st3" d="M140.88,55.02H34.39c-3.27,0-5.92-2.65-5.92-5.92c0-3.27,2.65-5.92,5.92-5.92h106.49
		c3.27,0,5.92,2.65,5.92,5.92C146.8,52.37,144.15,55.02,140.88,55.02L140.88,55.02L140.88,55.02z"/>
	<path id="패스_593" class="st3" d="M117.22,84.6H58.05c-3.27,0-5.92-2.65-5.92-5.92s2.65-5.92,5.92-5.92h59.16
		c3.27,0,5.92,2.65,5.92,5.92S120.48,84.6,117.22,84.6z"/>
</g>
<rect id="사각형_63" x="57.1" y="33.9" class="st5" width="236.65" height="11.83"/>
</svg>
