<?xml version="1.0" encoding="utf-8"?>
<!-- Generator: Adobe Illustrator 23.1.0, SVG Export Plug-In . SVG Version: 6.00 Build 0)  -->
<svg version="1.1" id="레이어_1" xmlns="http://www.w3.org/2000/svg" xmlns:xlink="http://www.w3.org/1999/xlink" x="0px"
	 y="0px" viewBox="0 0 104 107" style="enable-background:new 0 0 104 107;" xml:space="preserve">
<style type="text/css">
	.st0{fill:#45B035;}
	.st1{fill:#FFFFFF;}
	.st2{fill-rule:evenodd;clip-rule:evenodd;fill:#FFFFFF;}
</style>
<g>
	<path class="st0" d="M100.28,80.16c0,12.05-9.74,21.84-21.76,21.84H25.48c-12.01,0-21.74-9.8-21.74-21.84V26.93
		c0-12.04,9.73-21.83,21.74-21.83h53.04c12.02,0,21.76,9.79,21.76,21.83V80.16z"/>
	<g>
		<path class="st1" d="M47.89,41.09c0-4.07-1.45-7.99-4.07-11.11c0.28-1.1,0.41-2.2,0.41-3.31c0-7.52-6.1-13.64-13.6-13.64
			c-7.48,0-13.59,6.12-13.59,13.64c0,1.13,0.15,2.21,0.43,3.31c-2.63,3.1-4.08,7.03-4.08,11.11c0,8.01,5.58,13.4,14.39,14.37v14.18
			c0,1.59,1.28,2.88,2.85,2.88c1.6,0,2.87-1.29,2.87-2.88V55.46C42.31,54.49,47.89,49.1,47.89,41.09z M30.63,39.35
			c-1.57,0-2.85,1.29-2.85,2.86v7.49c-3.81-0.54-8.65-2.42-8.65-8.62c0-3.14,1.26-6.1,3.57-8.3c0.85-0.83,1.1-2.07,0.67-3.17
			c-0.4-0.95-0.6-1.96-0.6-2.95c0-4.35,3.54-7.9,7.86-7.9c4.35,0,7.88,3.55,7.88,7.9c0,1.01-0.2,2.01-0.58,2.95
			c-0.44,1.09-0.19,2.32,0.67,3.17c2.29,2.2,3.56,5.15,3.56,8.3c0,6.19-4.86,8.08-8.66,8.62v-7.49
			C33.5,40.64,32.22,39.35,30.63,39.35z"/>
		<g>
			<path class="st2" d="M90.02,72.22c-0.39-3.59-0.82-7.2-1.41-10.77c-0.3-1.95-0.87-3.87-1.5-5.73c-0.6-1.82-1.87-3.05-3.84-3.23
				c-1.76-0.16-3.27,0.45-4.51,1.7c-1.93,1.95-3.88,3.92-5.78,5.92c-0.36,0.38-0.65,0.38-1.08,0.19c-2.05-0.95-4.11-1.88-6.18-2.78
				c-1.73-0.76-3.44,0.49-3.27,2.33c0.08,0.78,0.48,1.36,1.15,1.73c2.73,1.56,5.46,3.14,8.2,4.67c0.89,0.49,1.76,0.31,2.58-0.23
				c0.89-0.58,1.77-1.19,2.74-1.85c0,2.39,0,4.63,0,6.93c-2.27,0.14-4.52,0.29-6.77,0.44c-1.19,0.09-2.38,0.13-3.57,0.25
				c-1.78,0.19-2.98,1.53-2.94,3.32c0.13,5.38,0.26,10.74,0.41,16.13c0.05,1.62,1.51,2.9,3.13,2.85c1.69-0.05,3.05-1.38,3.05-3.03
				c0.01-3.93,0-7.85,0.01-11.78c0-0.25,0-0.51,0-0.83c0.28,0,0.51,0,0.74,0c4.43-0.01,8.87,0.01,13.29-0.01
				C88.28,78.4,90.44,76,90.02,72.22z"/>
			<path class="st2" d="M78.3,51.03c3,0.04,5.56-2.51,5.59-5.51c0.01-3.17-2.45-5.7-5.59-5.73c-3.01-0.01-5.58,2.48-5.62,5.48
				C72.65,48.48,75.11,51.02,78.3,51.03z"/>
			<path class="st2" d="M66.85,67.07c0-1.9-1.51-3.33-3.51-3.33l-16.98-0.03c-2.07,0-3.57,1.41-3.57,3.35
				c0,1.91,1.49,3.33,3.57,3.33l8.52,0.01l8.46-0.01C65.34,70.4,66.85,68.96,66.85,67.07z"/>
			<path class="st2" d="M89.13,80.45c-0.21-0.05-0.46-0.07-0.68-0.07c-5.13,0-10.26,0-15.39,0c-0.08,0-0.18,0.02-0.35,0.02
				c0,1.33,0,4.8,0,6.15c1.83,0,3.62,0,5.4,0c3.5-0.01,7,0,10.48-0.01c1.04,0,1.87-0.73,1.99-1.7
				C90.72,83.87,90.1,80.71,89.13,80.45z"/>
			<path class="st2" d="M62.11,76.03c-0.46,0.84-0.88,1.59-1.29,2.33c-1.61,2.87-3.22,5.75-4.82,8.62
				c-0.55,1.02-0.58,2.02,0.08,2.97c0.98,1.46,3.12,1.59,4.23,0.23c0.77-0.94,1.43-1.95,2.12-2.95c0.1-0.14,0.14-0.35,0.14-0.53
				c-0.1-3.49-0.23-6.95-0.35-10.46C62.21,76.22,62.19,76.21,62.11,76.03z"/>
		</g>
	</g>
</g>
</svg>
