<?xml version="1.0" encoding="utf-8"?>
<!-- Generator: Adobe Illustrator 23.1.0, SVG Export Plug-In . SVG Version: 6.00 Build 0)  -->
<svg version="1.1" id="레이어_1" xmlns="http://www.w3.org/2000/svg" xmlns:xlink="http://www.w3.org/1999/xlink" x="0px"
	 y="0px" viewBox="0 0 685 368" style="enable-background:new 0 0 685 368;" xml:space="preserve">
<style type="text/css">
	.st0{fill:#1E9252;}
	.st1{fill:#FFFFFF;}
</style>
<g id="그룹_60" transform="translate(-176 -346.513)">
	<g id="그룹_58" transform="translate(176 346.513)">
		<path id="패스_628" class="st0" d="M628.43,329.89c-4.29-0.01-8.02-2.94-9.04-7.1l-12.36-50.43
			c-1.22-5.01,1.86-10.05,6.86-11.27c1.32-0.32,2.69-0.35,4.02-0.09l24.4,4.88l-58.84-101.86c-2.57-4.47-1.04-10.17,3.43-12.75
			c1.54-0.89,3.3-1.32,5.07-1.24l13.16,0.6L522.81,39.28l-34.59,42.8c-3.24,4.01-9.11,4.63-13.11,1.39s-4.63-9.11-1.39-13.11
			l42.19-52.17c1.8-2.26,4.57-3.54,7.46-3.46c2.88,0.07,5.57,1.46,7.28,3.78l101.11,136.81c3.06,4.14,2.19,9.97-1.94,13.04
			c-1.72,1.27-3.83,1.92-5.97,1.82l-15.7-0.73l60.63,104.97c2.57,4.46,1.04,10.17-3.42,12.74c-1.96,1.13-4.26,1.51-6.48,1.07
			l-30.22-6.07l8.86,36.18c1.23,5-1.83,10.05-6.83,11.27c0,0-0.01,0-0.02,0C629.92,329.79,629.18,329.88,628.43,329.89"/>
		<path id="패스_629" class="st0" d="M411.4,203.44c-0.89,0-1.77-0.12-2.62-0.37c-4.93-1.45-7.77-6.62-6.34-11.56l3.35-11.48
			l-5.9,1.18c-5.05,1.01-9.96-2.26-10.97-7.3c-0.45-2.24-0.06-4.57,1.09-6.54l24.33-41.59h-1.24c-5.15,0-9.32-4.17-9.32-9.32
			c0-2.05,0.68-4.05,1.93-5.68l48.63-63.31c3.13-4.08,8.98-4.85,13.06-1.71c0.69,0.53,1.3,1.15,1.82,1.85l47.58,64.35
			c3.06,4.15,2.18,9.99-1.96,13.05c-1.22,0.9-2.64,1.49-4.14,1.72l10.17,17.09c2.67,4.4,1.27,10.13-3.13,12.8
			c-4.4,2.67-10.13,1.27-12.8-3.13c-0.03-0.04-0.05-0.09-0.08-0.13l-18.95-31.79c-2.64-4.41-1.2-10.12,3.21-12.76
			c0.51-0.31,1.05-0.56,1.62-0.77l-29.15-39.41l-29.64,38.6c5.1,0.75,8.63,5.49,7.88,10.58c-0.17,1.18-0.57,2.32-1.18,3.36
			l-22.05,37.69l0.63-0.13c5.06-1,9.97,2.28,10.97,7.34c0.29,1.47,0.23,2.98-0.19,4.42l-7.67,26.25c-1.16,3.97-4.8,6.71-8.95,6.72"
			/>
		<path id="패스_630" class="st1" d="M117.14,207.05h16.56v141.34h-16.56V207.05z M39.05,209.96h43.88v15.18H39.05L39.05,209.96z
			 M96.89,251.32h-27v3.72c0.08,11.03,3.87,21.72,10.76,30.34c6.11,8.07,13.98,14.65,23.02,19.22l-10.27,13.24
			c-7.04-3.91-13.46-8.87-19.02-14.7c-5.52-5.56-9.99-12.07-13.2-19.22c-3.2,7.74-7.83,14.82-13.65,20.84
			c-5.57,6.21-12.1,11.5-19.33,15.67L17.6,307.67c9.21-5.14,17.18-12.26,23.32-20.84c6.84-8.93,10.76-19.76,11.2-31v-4.52H24.65
			v-14.86H96.9L96.89,251.32z"/>
		<path id="패스_631" class="st1" d="M41.25,222.94h39.47v-10.78H41.25V222.94z M85.12,227.34H36.84v-19.59h48.29V227.34z
			 M20.93,308.29l7.74,9.34c6.38-3.95,12.17-8.79,17.19-14.36c5.64-5.81,10.12-12.63,13.21-20.12l1.99-5.29l2.11,5.24
			c3.1,6.89,7.42,13.17,12.75,18.52c4.99,5.19,10.65,9.7,16.83,13.4l7.55-9.74c-8.4-4.6-15.72-10.94-21.46-18.61
			c-7.17-9.01-11.1-20.16-11.17-31.67v-5.92h27.01v-10.46H26.82v10.46h27.46v6.72c-0.4,11.71-4.46,23-11.6,32.29
			c-5.84,8.1-13.23,14.96-21.75,20.18 M27.6,323.2l-13.45-16.2l2.38-1.28c8.92-4.99,16.63-11.89,22.58-20.2
			c6.6-8.54,10.37-18.93,10.77-29.72v-2.32H22.42v-19.26h76.67v19.26H72.08v1.52c0.08,10.55,3.69,20.77,10.27,29.02
			c5.9,7.83,13.53,14.2,22.29,18.61l2.32,1.23l-13.01,16.76l-1.63-0.86c-7.26-3.99-13.86-9.09-19.57-15.1
			c-4.48-4.64-8.35-9.83-11.52-15.45c-3.22,6.22-7.3,11.95-12.12,17.03c-5.74,6.39-12.47,11.84-19.92,16.12L27.6,323.2z
			 M119.34,346.17h12.17V209.24h-12.17V346.17z M135.91,350.57h-20.97V204.84h20.97V350.57z"/>
		<path id="패스_632" class="st1" d="M194.32,231.77c-7.85,6.89-8.63,18.85-1.73,26.7c0.54,0.62,1.12,1.19,1.73,1.73
			c9.76,7.53,23.38,7.53,33.14,0c7.85-6.4,9.03-17.96,2.62-25.81c-0.78-0.96-1.66-1.84-2.62-2.62
			C217.77,224.02,204.01,224.02,194.32,231.77 M239.58,271.17c-7.98,6.78-18.2,10.36-28.68,10.02
			c-10.39,0.39-20.55-3.19-28.39-10.02c-7.29-6.33-11.44-15.54-11.35-25.2c-0.08-9.72,4-19,11.2-25.52
			c8.01-6.61,18.16-10.05,28.54-9.69c10.38-0.26,20.51,3.23,28.53,9.84c7.41,6.33,11.62,15.62,11.52,25.36
			c-0.05,9.63-4.18,18.78-11.36,25.2 M242.82,351.77H226.4v-46.36h-31.6v46.36h-16.41v-46.36h-32.53v-14.55h128.72v14.55h-31.76
			V351.77z"/>
		<path id="패스_633" class="st1" d="M210.89,228.15c-5.53-0.21-10.93,1.68-15.13,5.27c-6.93,6.08-7.62,16.62-1.55,23.55
			c0.49,0.56,1.02,1.09,1.58,1.58c8.94,6.8,21.33,6.78,30.25-0.05c6.92-5.64,7.96-15.81,2.32-22.73c-0.69-0.85-1.47-1.63-2.32-2.32
			C221.85,229.84,216.44,227.95,210.89,228.15 M210.9,268.04c-6.54,0.17-12.92-2.02-17.98-6.16c-8.78-7.66-9.69-20.99-2.03-29.77
			c0.61-0.7,1.27-1.37,1.97-1.98c10.51-8.5,25.53-8.51,36.06-0.03c8.77,7.2,10.04,20.15,2.84,28.91c-0.86,1.05-1.82,2.01-2.87,2.86
			c-5.06,4.14-11.44,6.33-17.98,6.16 M210.91,212.97c-9.85-0.36-19.48,2.9-27.1,9.15c-6.72,6.1-10.52,14.78-10.46,23.85
			c-0.07,9.03,3.81,17.63,10.61,23.56c7.46,6.44,17.07,9.82,26.92,9.45c9.93,0.34,19.63-3.02,27.22-9.45
			c6.72-6,10.58-14.56,10.62-23.57c0.11-9.1-3.83-17.79-10.75-23.7c-7.61-6.26-17.23-9.57-27.09-9.31 M210.89,283.39
			c-10.95,0.37-21.63-3.43-29.89-10.62c-7.74-6.75-12.14-16.54-12.05-26.8c-0.07-10.33,4.26-20.21,11.92-27.15
			c8.42-6.97,19.1-10.63,30.02-10.27c10.91-0.26,21.55,3.43,29.96,10.4c7.91,6.73,12.41,16.64,12.28,27.02
			c-0.03,10.24-4.41,19.98-12.05,26.8C232.7,279.95,221.93,283.74,210.89,283.39 M228.59,349.56h12.01v-46.34h31.75v-10.13h-124.3
			v10.13h32.53v46.35h12.01v-46.35h36L228.59,349.56z M245.01,353.97h-20.82V307.6h-27.19v46.36h-20.82V307.6h-32.53v-18.95h133.11
			v18.95h-31.76L245.01,353.97z"/>
		<path id="패스_634" class="st1" d="M376.45,207.05h16.56v141.34h-16.56V207.05z M321.67,268.92c5.17,0.07,10.12-2.04,13.65-5.82
			c3.87-4.01,5.93-9.44,5.68-15.01c0.21-5.48-1.85-10.8-5.68-14.71c-3.47-3.88-8.45-6.06-13.65-5.99
			c-11.46,0.81-20.1,10.75-19.3,22.22c0.73,10.34,8.96,18.57,19.3,19.3 M296.21,222.89c14.21-13.56,36.57-13.56,50.78,0
			c13.96,13.44,14.38,35.66,0.94,49.62c-0.31,0.32-0.62,0.63-0.94,0.94c-14.3,13.35-36.49,13.35-50.78,0
			c-13.96-13.74-14.14-36.2-0.4-50.16C295.94,223.15,296.07,223.02,296.21,222.89 M277.18,301.39c13.5,0,32.07-0.8,48.79-1.61
			c16.73-1.13,33.28-2.26,42.95-3.72l1.54,14.37c-10.27,1.46-26.7,2.74-43.27,3.88s-34.98,1.93-48.94,1.93L277.18,301.39z"/>
		<path id="패스_635" class="st1" d="M321.68,229.59c-10.25,0.81-17.9,9.77-17.09,20.02c0.72,9.12,7.97,16.37,17.09,17.09
			c4.57,0.05,8.95-1.81,12.09-5.14c3.46-3.61,5.29-8.48,5.04-13.48c0.21-4.89-1.62-9.66-5.04-13.16c-3.06-3.45-7.47-5.4-12.09-5.32
			 M321.68,271.12c-12.68-0.81-22.3-11.75-21.49-24.43c0.74-11.55,9.94-20.75,21.49-21.49c5.8-0.09,11.36,2.34,15.25,6.66
			c4.24,4.31,6.51,10.18,6.28,16.22c0.24,6.15-2.04,12.14-6.31,16.57C332.96,268.84,327.44,271.19,321.68,271.12 M321.68,214.89
			c-8.92-0.09-17.52,3.34-23.93,9.55c-13.09,12.9-13.24,33.97-0.34,47.06c0.11,0.11,0.22,0.23,0.34,0.34
			c13.44,12.55,34.3,12.55,47.74,0c13.08-12.62,13.45-33.46,0.83-46.54c-0.27-0.28-0.55-0.56-0.83-0.83
			c-6.36-6.2-14.91-9.64-23.8-9.57 M321.7,285.64c-10.03,0.08-19.71-3.73-26.99-10.64c-14.84-14.58-15.04-38.43-0.46-53.26
			c0.15-0.16,0.31-0.31,0.46-0.46c15.06-14.39,38.78-14.39,53.84,0c14.83,14.32,15.24,37.96,0.91,52.78
			c-0.31,0.32-0.62,0.63-0.93,0.93C341.3,281.88,331.68,285.69,321.7,285.64 M279.57,303.55l0.75,10.46
			c12.81-0.06,29.69-0.76,46.75-1.92c12.32-0.86,29.61-2.11,41-3.58l-1.06-9.99c-10.06,1.34-25.7,2.39-40.87,3.42
			c-15.63,0.76-33.2,1.52-46.57,1.61 M278.29,318.43h-2.04l-1.4-19.26h2.37c13.52,0,32.2-0.83,48.68-1.61
			c16.24-1.11,33.07-2.25,42.74-3.7l2.28-0.33l2,18.77l-2.11,0.3c-11.41,1.62-30.25,3-43.42,3.89
			C309.32,317.72,291.43,318.44,278.29,318.43 M378.68,346.18h12.17V209.24h-12.17V346.18z M395.25,350.58h-20.97V204.84h20.97
			V350.58z"/>
		<path id="패스_636" class="st1" d="M145.66,74.99v113.24h-13.27v-66.26h-24.22v-12.17h24.22V75L145.66,74.99z M111.47,160.28
			c-5.95-3.9-11.26-8.71-15.74-14.23c-4.59-5.16-8.18-11.13-10.58-17.6c-5.36,13.51-14.76,25.04-26.92,33l-7.99-10.61
			c7.91-5.19,14.54-12.09,19.43-20.18c5.52-9.29,8.45-19.88,8.48-30.68V81.2H91.8v18.52c-0.04,10.42,2.73,20.65,8,29.64
			c4.82,8.08,11.48,14.91,19.43,19.93L111.47,160.28z"/>
		<path id="패스_637" class="st1" d="M53.39,151.36l5.34,7.09c10.96-7.65,19.43-18.34,24.36-30.76l2.14-5.87l2,5.92
			c2.31,6.21,5.75,11.93,10.15,16.87c3.9,4.82,8.45,9.07,13.52,12.63l5.18-7.35c-7.4-5.07-13.61-11.69-18.2-19.4
			c-5.48-9.32-8.35-19.96-8.3-30.77V83.41h-9.25v16.57c-0.04,11.19-3.07,22.16-8.78,31.77c-4.65,7.71-10.84,14.39-18.18,19.61
			 M57.69,164.42l-10.66-14.12l1.99-1.28c7.63-5,14.04-11.66,18.74-19.48c5.31-8.94,8.13-19.13,8.17-29.53V79.03h18.05v20.7
			c-0.04,10.03,2.62,19.88,7.7,28.52c4.62,7.78,11.03,14.35,18.69,19.17l1.98,1.23l-10.32,14.64l-1.78-1.16
			c-6.15-4.04-11.63-9-16.26-14.71c-3.51-4.03-6.5-8.49-8.88-13.27c-5.83,11.83-14.71,21.89-25.71,29.15L57.69,164.42z
			 M134.56,186.03h8.89V77.2h-8.88V112h-24.22v7.77h24.22L134.56,186.03z M147.83,190.44h-17.64v-66.27h-24.23v-16.56h24.23V72.8
			h17.68L147.83,190.44z"/>
		<path id="패스_638" class="st1" d="M234.8,74.99h13.27v111.95H234.8V74.99z M184.14,185.65v-46.46
			c-10.08,0.64-19.8,0.9-27.18,1.04l-1.1-12.17c9.96,0,24.1-0.52,37.5-1.55c2.46-0.13,4.91-0.26,7.38-0.52
			c1.97-10.77,3.11-21.67,3.42-32.6h-38.12V81.47h51.53c-0.05,14.57-1.28,29.11-3.7,43.48c5.66-0.64,10.82-1.28,15.01-1.94
			l1.35,12.04c-8.85,1.28-20.66,2.46-32.71,3.24v47.37L184.14,185.65z"/>
		<path id="패스_639" class="st1" d="M186.34,183.44h8.99v-47.22l2.06-0.14c11-0.71,21.94-1.76,30.42-2.92l-0.86-7.64
			c-3.42,0.49-7.65,1.03-12.84,1.62l-2.94,0.34l0.53-2.92c2.28-13.52,3.49-27.19,3.63-40.89h-47.08v7.5h38.22l-0.1,2.29
			c-0.32,11.06-1.48,22.07-3.48,32.96l-0.32,1.59l-1.61,0.17c-2.44,0.26-4.89,0.39-7.32,0.52c-11.65,0.9-24.9,1.48-35.37,1.55
			l0.7,7.74c9.35-0.18,17.55-0.51,25.02-0.98l2.34-0.16L186.34,183.44z M237.01,184.73h8.88V77.2h-8.88V184.73z M250.27,189.14
			H232.6v-52.22l-2.03,0.29c-8.34,1.22-19.48,2.35-30.82,3.12v47.51h-17.81v-46.31c-7.46,0.43-15.65,0.72-24.94,0.89l-2.04,0.03
			l-1.51-16.6h2.41c10.7,0,24.99-0.6,37.33-1.55c1.99-0.11,3.85-0.21,5.7-0.36c1.64-9.38,2.64-18.86,3-28.37h-38.02V79.27h55.93
			l-0.02,2.21c-0.06,13.71-1.13,27.4-3.23,40.95c4.92-0.59,8.87-1.11,11.98-1.6l2.26-0.36l1.78,15.78V72.8h17.68L250.27,189.14z"/>
	</g>
	<path id="패스_640" class="st1" d="M476.21,475.08h19.8l0.49-35.07h-20.78L476.21,475.08z M525.52,486.74h-33.44v23.94h45v11.65
		H433.78v-11.65h44.89v-23.94h-31.98v-11.65h17.46l-0.49-35.07H449.4v-11.66h73.41v11.65h-14.26l-0.49,35.07h17.46L525.52,486.74z"
		/>
	<path id="패스_641" class="st1" d="M478.38,472.89h15.44l0.43-30.67h-16.32L478.38,472.89z M498.17,477.29h-24.14l-0.55-39.47
		h25.25L498.17,477.29z M435.99,520.13h98.89v-7.24h-45.01v-28.35h33.44v-7.24h-17.49l0.55-39.47h14.23v-7.28h-69v7.28h14.23
		l0.55,39.47h-17.51v7.24h31.97v28.35h-44.86V520.13z M539.28,524.54h-107.7v-16.06h44.89v-19.53h-31.98v-16.05h17.43l-0.43-30.67
		h-14.3v-16.04h77.82v16.05h-14.29l-0.43,30.67h17.43v16.05h-33.44v19.53h45V524.54z"/>
	<g id="그룹_59" transform="translate(271.058 383.753)">
		<path id="패스_642" class="st1" d="M396.76,293.72h26.48l0.58-27H396.2L396.76,293.72z M386.71,194.75
			c-10.93,6.61-22.7,11.72-34.99,15.17l-10.24-15.36c13.65-3.34,26.56-9.17,38.09-17.2c10.63-7.22,18.17-17.4,18.17-27.94v-10.35
			h23.2v10.35c0,10.54,7.34,20.71,17.98,27.94c11.56,8.1,24.55,13.94,38.28,17.2l-10.24,15.36c-12.44-3.32-24.3-8.5-35.19-15.36
			c-8.76-4.97-16.4-11.71-22.42-19.79c-6.24,8-13.91,14.78-22.62,19.98 M465.03,266.71H445.5l-0.58,27h22.62v17.21H350.37v-17.21
			h24.35l-0.58-27h-21.07v-17.59h45.8v-15.9h-70.72v-16.65h162.38v16.65h-70.57v15.9h45.05L465.03,266.71z"/>
		<path id="패스_643" class="st1" d="M409.37,170.68l1.83,2.94c5.84,7.78,13.23,14.28,21.69,19.07
			c10.26,6.48,21.41,11.43,33.1,14.69l7.67-11.47c-12.95-3.34-25.17-9.03-36.07-16.77c-11.95-8.11-18.86-18.95-18.86-29.69v-8.16
			h-18.79v8.16c0,10.66-6.98,21.5-19.14,29.75c-10.85,7.65-22.97,13.31-35.81,16.69l7.67,11.49c11.55-3.39,22.61-8.26,32.9-14.5
			c8.43-5.03,15.86-11.57,21.93-19.3L409.37,170.68z M350.77,212.47l-12.84-19.23l2.96-0.81c13.39-3.22,26.06-8.93,37.34-16.83
			c10.86-7.37,17.3-17.12,17.3-26.17v-12.56h27.61v12.56c0,9.12,6.36,18.89,17.01,26.11c11.34,7.98,24.1,13.71,37.6,16.89l3,0.78
			l-12.84,19.26l-1.53-0.43c-12.65-3.38-24.71-8.65-35.79-15.62c-8.04-4.73-15.23-10.77-21.27-17.88
			c-6.19,7.06-13.4,13.14-21.4,18.05c-11.11,6.74-23.08,11.94-35.59,15.45L350.77,212.47z M398.91,291.53h22.18l0.48-22.62h-23.14
			L398.91,291.53z M425.4,295.92h-30.79l-0.68-31.41h32.14L425.4,295.92z M352.56,308.73h112.75v-12.8h-22.68l0.68-31.41h19.47
			v-13.18h-45.02v-20.31h70.56v-12.25H330.34v12.25h70.76v20.31h-45.83v13.18h21.03l0.67,31.41h-24.4L352.56,308.73z M469.72,313.13
			H348.17v-21.61h24.31l-0.49-22.62h-21.12v-21.98h45.82v-11.5h-70.76v-21.04h166.78v21.04h-70.56v11.5h45.04v21.98h-19.57
			l-0.49,22.62h22.57V313.13z"/>
	</g>
</g>
</svg>
