<?xml version="1.0" encoding="utf-8"?>
<!-- Generator: Adobe Illustrator 23.1.0, SVG Export Plug-In . SVG Version: 6.00 Build 0)  -->
<svg version="1.1" id="레이어_1" xmlns="http://www.w3.org/2000/svg" xmlns:xlink="http://www.w3.org/1999/xlink" x="0px"
	 y="0px" viewBox="0 0 104 107" style="enable-background:new 0 0 104 107;" xml:space="preserve">
<style type="text/css">
	.st0{fill:#EA5532;}
	.st1{fill:#FFFFFF;}
</style>
<g>
	<path class="st0" d="M100.29,80.16c0,12.04-9.75,21.84-21.76,21.84H25.48c-12.01,0-21.75-9.79-21.75-21.84V26.93
		c0-12.05,9.74-21.83,21.75-21.83h53.05c12.01,0,21.76,9.78,21.76,21.83V80.16z"/>
	<g>
		<path class="st1" d="M31.74,18.43c-5.78,0-10.48,4.72-10.48,10.51c0,5.8,4.69,10.51,10.48,10.51c5.77,0,10.46-4.71,10.46-10.51
			C42.2,23.15,37.51,18.43,31.74,18.43z M31.74,32.46c-1.94,0-3.52-1.58-3.52-3.52c0-1.94,1.58-3.52,3.52-3.52
			c1.93,0,3.51,1.58,3.51,3.52C35.25,30.88,33.67,32.46,31.74,32.46z"/>
		<path class="st1" d="M69.44,18.43c-5.77,0-10.47,4.72-10.47,10.51c0,5.8,4.7,10.51,10.47,10.51c5.77,0,10.47-4.71,10.47-10.51
			C79.9,23.15,75.21,18.43,69.44,18.43z M69.44,32.46c-1.94,0-3.52-1.58-3.52-3.52c0-1.94,1.58-3.52,3.52-3.52
			c1.93,0,3.52,1.58,3.52,3.52C72.95,30.88,71.36,32.46,69.44,32.46z"/>
		<path class="st1" d="M88.58,88.67c-1.2,0-2.35-0.61-3.01-1.72l-8.81-14.97c-0.33-0.52-0.49-1.13-0.49-1.77V55.19
			c-0.06-1.35-0.71-6-6.83-6c-2.41,0-4.21,0.62-5.39,1.82c-1.85,1.89-1.86,4.83-1.86,4.85l0.01,15.25c0,0.65-0.19,1.29-0.53,1.83
			l-8.61,14.07c-0.63,1.03-1.76,1.66-2.97,1.66h-7.95c-1.92,0-3.49-1.56-3.49-3.49V56.54c0-0.06,0-3.6-2.09-5.7
			c-2.26-2.25-7.44-2.25-9.64,0.07c-2.22,2.37-2.1,6.55-2.09,6.59v27.66c0,1.93-1.57,3.49-3.5,3.49s-3.5-1.56-3.5-3.49V57.72
			c-0.03-0.54-0.26-7.08,4-11.6c4.81-5.12,14.83-5.13,19.73-0.14c4.06,4.12,4.09,9.95,4.08,10.61v25.07h2.5l7.06-11.54V55.95
			c-0.01-0.51-0.04-5.86,3.84-9.83c2.54-2.61,6.03-3.94,10.39-3.94c9.95,0,13.72,7.75,13.81,12.96v14.11l8.33,14.16
			c0.98,1.66,0.44,3.81-1.23,4.8C89.78,88.53,89.17,88.67,88.58,88.67z"/>
	</g>
</g>
</svg>
